<ttFont>
          <CharString index="0">
            4 -106 callsubr
            -4 5 return
          </CharString>
          <CharString index="1">
            5 -101 callsubr
            return
          </CharString>
          <CharString index="2">
            -107 callgsubr
            323 hlineto
            7 3 -4 -6 hvcurveto
            -318 vlineto
            -6 callgsubr
            -87 vlineto
            return
          </CharString>
          <CharString index="3">
            12 -107 callsubr
            -12 vhcurveto
            return
          </CharString>
          <CharString index="4">
            414 callsubr
            7 -100 callgsubr
            return
          </CharString>
          <CharString index="5">
            11 -97 callsubr
            -11 vhcurveto
            return
          </CharString>
          <CharString index="6">
            10 -91 callgsubr
            return
          </CharString>
          <CharString index="7">
            hlineto
            -102 callsubr
            return
          </CharString>
          <CharString index="8">
            11 -107 callsubr
            -11 vhcurveto
            return
          </CharString>
          <CharString index="9">
            -24 callgsubr
            7 vhcurveto
            76 -99 callgsubr
            return
          </CharString>
          <CharString index="10">
            5 -106 callsubr
            -5 5 return
          </CharString>
          <CharString index="11">
            rmoveto
            -89 callgsubr
            31 hlineto
            72 1 48 44 86 vvcurveto
            152 414 callsubr
            7 vhcurveto
            return
          </CharString>
          <CharString index="12">
            -101 callgsubr
            -194 vlineto
            -66 -34 -21 -50 vhcurveto
            -11 hlineto
            409 callgsubr
            -33 -6 callsubr
            20 hlineto
            88 55 47 101 hvcurveto
            196 414 callsubr
            7 vhcurveto
            return
          </CharString>
          <CharString index="13">
            3 -87 callgsubr
            return
          </CharString>
          <CharString index="14">
            350 callgsubr
            36 hlineto
            10 5 4 11 hvcurveto
            234 338 callsubr
            -36 575 callgsubr
            -48 vhcurveto
            -64 169 callsubr
            81 106 callgsubr
            162 419 callsubr
            7 vhcurveto
            73 -100 callsubr
            return
          </CharString>
          <CharString index="15">
            120 callsubr
            65 hvcurveto
            103 vlineto
            65 27 26 54 51 28 111 callsubr
            return
          </CharString>
          <CharString index="16">
            -89 callsubr
            122 490 callgsubr
            7 18 callsubr
            return
          </CharString>
          <CharString index="17">
            rmoveto
            -53 -31 -34 -60 vhcurveto
            -25 hlineto
            162 callsubr
            181 -20 callsubr
            -346 70 rmoveto
            120 callgsubr
            -54 callsubr
            return
          </CharString>
          <CharString index="18">
            vhcurveto
            38 -13 callgsubr
            314 vlineto
            54 30 30 56 208 callsubr
            -31 -32 -59 vhcurveto
            -38 hlineto
            -11 240 callsubr
            46 hlineto
            94 55 56 93 1 hvcurveto
            87 vlineto
            94 -57 55 -93 vhcurveto
            -30 hlineto
            -47 -34 -17 -27 -13 hvcurveto
            -4 return
          </CharString>
          <CharString index="19">
            623 -95 callgsubr
            return
          </CharString>
          <CharString index="20">
            -4 -103 callgsubr
            4 -5 return
          </CharString>
          <CharString index="21">
            hlineto
            -107 callgsubr
            return
          </CharString>
          <CharString index="22">
            -73 callsubr
            -14 18 callgsubr
            return
          </CharString>
          <CharString index="23">
            10 callsubr
            537 vlineto
            -70 callgsubr
            return
          </CharString>
          <CharString index="24">
            vlineto
            -93 55 -53 109 546 callsubr
            11 5 4 11 hvcurveto
            29 vlineto
            10 -5 4 -11 vhcurveto
            -151 hlineto
            -71 -30 29 60 hvcurveto
            23 vlineto
            57 24 34 56 vhcurveto
            67 hlineto
            48 19 -21 -48 hvcurveto
            -21 vlineto
            -11 5 -14 callsubr
            36 hlineto
            10 5 4 11 hvcurveto
            30 vlineto
            75 -44 41 -78 vhcurveto
            -81 hlineto
            -51 -20 19 49 49 22 18 50 hvcurveto
            151 hlineto
            19 16 11 24 115 callsubr
            return
          </CharString>
          <CharString index="25">
            -71 callgsubr
            -3 6 -2 3 hvcurveto
            return
          </CharString>
          <CharString index="26">
            15 callgsubr
            65 -61 callsubr
            return
          </CharString>
          <CharString index="27">
            -81 callgsubr
            67 -42 callgsubr
            return
          </CharString>
          <CharString index="28">
            29 -41 -72 callgsubr
            return
          </CharString>
          <CharString index="29">
            -2 141 273 rmoveto
            -7 -3 3 7 hvcurveto
            77 vlineto
            56 28 30 56 vhcurveto
            68 hlineto
            56 28 -30 -56 hvcurveto
            -77 210 callsubr
            62 -273 rmoveto
            11 3 4 9 hvcurveto
            36 156 callgsubr
            -204 563 callsubr
            61 5 callsubr
            283 hlineto
            10 4 4 11 hvcurveto
            127 300 callsubr
            -91 vhcurveto
            -84 -43 callgsubr
            return
          </CharString>
          <CharString index="30">
            hlineto
            -74 callgsubr
            return
          </CharString>
          <CharString index="31">
            -66 -39 -42 216 callgsubr
            -21 hvcurveto
            -13 4 8 -7 14 hhcurveto
            29 hlineto
            8 5 5 176 callsubr
            8 hvcurveto
            -5 15 88 callsubr
            return
          </CharString>
          <CharString index="32">
            -5 -10 hvcurveto
            return
          </CharString>
          <CharString index="33">
            268 568 rmoveto
            4 hlineto
            103 -346 rlineto
            -210 hlineto
            -78 -222 rmoveto
            9 3 3 11 3 hvcurveto
            47 146 rlineto
            242 hlineto
            47 -146 rlineto
            -11 2 3 -3 9 hhcurveto
            51 hlineto
            9 3 4 10 567 callsubr
            615 rlineto
            11 -3 372 callsubr
            -72 547 callgsubr
            -11 567 callsubr
            -615 rlineto
            -10 -3 3 -4 9 hhcurveto
            return
          </CharString>
          <CharString index="34">
            -69 -37 -68 callsubr
            return
          </CharString>
          <CharString index="35">
            rmoveto
            -61 -32 -20 -44 vhcurveto
            -17 hlineto
            -45 -31 20 61 hvcurveto
            242 414 callsubr
            7 vhcurveto
            149 -101 callgsubr
            -312 -73 callgsubr
            65 -28 callsubr
            return
          </CharString>
          <CharString index="36">
            -11 -87 callsubr
            11 vhcurveto
            return
          </CharString>
          <CharString index="37">
            44 callsubr
            -32 -32 -59 vhcurveto
            -38 hlineto
            -11 -4 74 callgsubr
            46 hlineto
            94 56 56 93 hvcurveto
            87 vlineto
            94 -57 55 -93 vhcurveto
            -30 hlineto
            -46 -34 -17 -27 -14 hvcurveto
            -4 return
          </CharString>
          <CharString index="38">
            30 vlineto
            12 302 callgsubr
            -35 453 callsubr
            -12 hvcurveto
            -30 vlineto
            -60 -32 -28 -58 vhcurveto
            -67 hlineto
            -59 -31 30 60 hvcurveto
            100 vlineto
            60 31 30 59 vhcurveto
            134 84 callsubr
            141 vlineto
            6 return
          </CharString>
          <CharString index="39">
            -44 -78 vhcurveto
            -63 hlineto
            -75 -38 -40 callgsubr
            return
          </CharString>
          <CharString index="40">
            30 hlineto
            46 32 -26 callsubr
            38 -13 callgsubr
            return
          </CharString>
          <CharString index="41">
            -12 5 -14 callsubr
            38 335 callgsubr
            86 222 callsubr
            return
          </CharString>
          <CharString index="42">
            -53 callgsubr
            -64 -27 callgsubr
            return
          </CharString>
          <CharString index="43">
            2 callgsubr
            -45 hlineto
            8 callgsubr
            hvcurveto
            -340 vlineto
            138 callgsubr
            345 vlineto
            -76 callgsubr
            -348 248 callgsubr
            return
          </CharString>
          <CharString index="44">
            -101 callgsubr
            -315 vlineto
            -75 callgsubr
            return
          </CharString>
          <CharString index="45">
            hlineto
            -48 -29 callgsubr
            329 -101 callgsubr
            -749 70 rmoveto
            94 callgsubr
            25 hlineto
            57 102 callgsubr
            -4 6 -2 3 hvcurveto
            -144 240 rlineto
            return
          </CharString>
          <CharString index="46">
            -101 callgsubr
            -375 -48 callgsubr
            return
          </CharString>
          <CharString index="47">
            -11 callgsubr
            -74 vlineto
            -7 -3 -3 -8 vhcurveto
            -117 hlineto
            -83 -48 -35 -85 -57 21 -30 37 -14 hvcurveto
            -50 callsubr
            return
          </CharString>
          <CharString index="48">
            589 callgsubr
            -3 1 -2 1 -3 hvcurveto
            88 -137 78 callsubr
            5 6 7 222 callgsubr
            3 hvcurveto
            return
          </CharString>
          <CharString index="49">
            2 -87 callgsubr
            return
          </CharString>
          <CharString index="50">
            60 421 643 rmoveto
            157 callsubr
            -478 155 callsubr
            -94 156 callsubr
            478 vlineto
            -76 callgsubr
            -481 vlineto
            -93 56 -55 92 vhcurveto
            111 hlineto
            244 callsubr
            482 526 callgsubr
            -10 vhcurveto
            return
          </CharString>
          <CharString index="51">
            0 callgsubr
            30 45 callgsubr
            return
          </CharString>
          <CharString index="52">
            6 478 callsubr
            -28 30 56 hvcurveto
            210 vlineto
            56 28 30 56 vhcurveto
            70 hlineto
            56 28 -30 -56 hvcurveto
            -210 vlineto
            -56 -28 -30 -56 vhcurveto
            8 -64 rmoveto
            544 callgsubr
            214 286 callsubr
            -86 -43 callgsubr
            return
          </CharString>
          <CharString index="53">
            516 callsubr
            -42 callsubr
            return
          </CharString>
          <CharString index="54">
            317 rmoveto
            -7 -3 3 6 hvcurveto
            244 5 callsubr
            151 hlineto
            57 29 -31 -56 hvcurveto
            -89 vlineto
            -56 -29 -30 -57 vhcurveto
            -175 -317 rmoveto
            23 callgsubr
            233 5 callsubr
            132 hlineto
            112 -242 rlineto
            -11 6 5 -3 14 hhcurveto
            45 hlineto
            9 7 5 11 -6 hvcurveto
            -116 243 rlineto
            4 vlineto
            63 16 39 50 75 vvcurveto
            91 vlineto
            92 -57 56 -92 vhcurveto
            -230 3 callgsubr
            return
          </CharString>
          <CharString index="55">
            11 callsubr
            -12 hlineto
            return
          </CharString>
          <CharString index="56">
            0 callgsubr
            32 vlineto
            return
          </CharString>
          <CharString index="57">
            313 callsubr
            -26 -83 callsubr
            return
          </CharString>
          <CharString index="58">
            vlineto
            -32 callgsubr
            return
          </CharString>
          <CharString index="59">
            322 rmoveto
            297 callsubr
            161 callgsubr
            191 -101 callgsubr
            return
          </CharString>
          <CharString index="60">
            -118 53 rlineto
            -34 13 -23 17 34 vvcurveto
            17 vlineto
            24 21 26 52 vhcurveto
            151 hlineto
            11 3 4 9 hvcurveto
            35 170 callgsubr
            -164 hlineto
            -95 -40 -44 -79 -64 28 -33 67 -28 hvcurveto
            118 -50 rlineto
            38 -15 13 -26 -32 vvcurveto
            -19 vlineto
            -40 -27 -18 -51 vhcurveto
            -168 hlineto
            -11 -3 -4 -9 hvcurveto
            -35 116 callgsubr
            return
          </CharString>
          <CharString index="61">
            hvcurveto
            -31 -49 callsubr
            return
          </CharString>
          <CharString index="62">
            23 15 9 36 35 vvcurveto
            90 -44 50 -97 -97 -48 -52 -88 -40 14 -34 27 570 callsubr
            -63 -12 -29 -40 -71 vvcurveto
            -64 vlineto
            -87 47 -47 96 vhcurveto
            40 hlineto
            36 28 10 24 14 hvcurveto
            4 -98 hlineto
            112 callsubr
            6 4 11 hvcurveto
            225 198 callsubr
            -29 387 callgsubr
            -47 vhcurveto
            -41 hlineto
            -59 -24 18 54 hvcurveto
            62 vlineto
            53 22 18 58 vhcurveto
            return
          </CharString>
          <CharString index="63">
            hlineto
            -33 callsubr
            return
          </CharString>
          <CharString index="64">
            -84 vlineto
            328 callgsubr
            27 hlineto
            -85 -88 rlineto
            -3 -3 -2 -3 -4 461 callgsubr
            10 450 callsubr
            8 6 67 72 43 47 8 8 rcurveline
            -93 callsubr
            endchar
          </CharString>
          <CharString index="65">
            25 hlineto
            48 12 callsubr
            37 hlineto
            10 5 5 11 hvcurveto
            return
          </CharString>
          <CharString index="66">
            hlineto
            54 41 20 34 17 39 callsubr
            return
          </CharString>
          <CharString index="67">
            70 177 callgsubr
            return
          </CharString>
          <CharString index="68">
            rlineto
            -6 3 5 -5 9 hhcurveto
            return
          </CharString>
          <CharString index="69">
            hlineto
            -46 callgsubr
            return
          </CharString>
          <CharString index="70">
            -83 callsubr
            72 -100 callsubr
            endchar
          </CharString>
          <CharString index="71" raw="1">
            f77f1d95 870b  
          </CharString>
          <CharString index="72">
            -60 -30 211 callgsubr
            14 2 12 3 11 vhcurveto
            202 148 callgsubr
            -265 36 callsubr
            return
          </CharString>
          <CharString index="73">
            315 callgsubr
            -183 178 callgsubr
            184 -101 callgsubr
            return
          </CharString>
          <CharString index="74">
            56 22 -12 callsubr
            return
          </CharString>
          <CharString index="75">
            623 49 callsubr
            return
          </CharString>
          <CharString index="76">
            5 callgsubr
            39 34 callsubr
            return
          </CharString>
          <CharString index="77">
            -29 callsubr
            -149 vlineto
            384 callsubr
            return
          </CharString>
          <CharString index="78">
            hlineto
            -11 callgsubr
            return
          </CharString>
          <CharString index="79">
            -38 callsubr
            -240 vlineto
            -98 56 -46 85 vhcurveto
            138 callsubr
            240 414 callsubr
            6 vhcurveto
            return
          </CharString>
          <CharString index="80">
            -29 32 59 hvcurveto
            83 39 callgsubr
            return
          </CharString>
          <CharString index="81">
            123 callgsubr
            9 vhcurveto
            return
          </CharString>
          <CharString index="82">
            94 callsubr
            -24 368 callgsubr
            82 hlineto
            46 22 -14 -46 hvcurveto
            -35 vlineto
            -45 -24 -16 -44 vhcurveto
            -75 hlineto
            -50 -26 280 callsubr
            55 -32 81 vhcurveto
            89 hlineto
            77 50 40 76 hvcurveto
            47 vlineto
            75 -47 35 -81 vhcurveto
            -85 hlineto
            -47 -20 13 45 hvcurveto
            13 55 callsubr
          </CharString>
          <CharString index="83">
            470 callgsubr
            23 26 51 vhcurveto
            34 50 callsubr
            return
          </CharString>
          <CharString index="84">
            vlineto
            -52 callsubr
            return
          </CharString>
          <CharString index="85">
            128 callsubr
            5 -4 9 vhcurveto
            39 hlineto
            10 128 callgsubr
            -100 vhcurveto
            endchar
          </CharString>
          <CharString index="86">
            -101 callgsubr
            -320 vlineto
            -7 0 -6 -1 -6 vhcurveto
            -193 190 rlineto
            10 15 19 77 callsubr
            return
          </CharString>
          <CharString index="87">
            hlineto
            -16 callgsubr
            return
          </CharString>
          <CharString index="88">
            rmoveto
            -12 -87 callsubr
            12 vhcurveto
            return
          </CharString>
          <CharString index="89">
            -80 callsubr
            -246 155 callgsubr
            return
          </CharString>
          <CharString index="90">
            259 -94 callgsubr
            return
          </CharString>
          <CharString index="91">
            414 callsubr
            7 -47 callgsubr
            return
          </CharString>
          <CharString index="92">
            288 callsubr
            -12 vhcurveto
            return
          </CharString>
          <CharString index="93">
            -4 10 vhcurveto
            return
          </CharString>
          <CharString index="94">
            vlineto
            -22 callgsubr
            return
          </CharString>
          <CharString index="95">
            -24 -54 hvcurveto
            -12 vlineto
            21 callsubr
            return
          </CharString>
          <CharString index="96">
            rmoveto
            358 callgsubr
            -124 hlineto
            -93 -53 -55 -95 hvcurveto
            return
          </CharString>
          <CharString index="97">
            -3 623 177 callgsubr
            return
          </CharString>
          <CharString index="98">
            -75 callsubr
            -29 vlineto
            return
          </CharString>
          <CharString index="99">
            vlineto
            83 -56 37 -75 -74 467 callsubr
            -49 405 callgsubr
            43 370 callgsubr
            39 24 -19 -42 vhcurveto
            return
          </CharString>
          <CharString index="100">
            -51 callsubr
            9 -5 6 -11 vhcurveto
            return
          </CharString>
          <CharString index="101">
            vlineto
            -10 4 -5 11 vhcurveto
            return
          </CharString>
          <CharString index="102">
            rmoveto
            2 callgsubr
            return
          </CharString>
          <CharString index="103">
            hlineto
            -2 callsubr
            return
          </CharString>
          <CharString index="104">
            -1 44 14 rmoveto
            151 callsubr
            377 hlineto
            11 3 6 9 hvcurveto
            40 336 callsubr
            -306 4 hlineto
            302 481 rlineto
            6 9 2 7 12 vvcurveto
            48 156 callgsubr
            -354 hlineto
            -10 482 callgsubr
            -40 vlineto
            -9 4 -5 10 vhcurveto
            289 -4 hlineto
            -310 -495 rlineto
            -6 -8 0 -8 -10 vvcurveto
            return
          </CharString>
          <CharString index="105">
            -47 -29 callgsubr
            return
          </CharString>
          <CharString index="106">
            -60 callgsubr
            162 -20 callsubr
            return
          </CharString>
          <CharString index="107">
            5 -5 11 vhcurveto
            return
          </CharString>
          <CharString index="108">
            85 callsubr
            46 22 -26 -49 91 callgsubr
            return
          </CharString>
          <CharString index="109">
            -24 callgsubr
            8 vhcurveto
            323 -99 callgsubr
            return
          </CharString>
          <CharString index="110">
            -19 -55 vhcurveto
            -57 hlineto
            409 callgsubr
            return
          </CharString>
          <CharString index="111">
            -22 callgsubr
            45 hlineto
            return
          </CharString>
          <CharString index="112">
            vlineto
            6 3 3 7 vhcurveto
            return
          </CharString>
          <CharString index="113">
            83 hlineto
            47 20 -14 -46 hvcurveto
            -38 491 callgsubr
            -47 vhcurveto
            -77 hlineto
            -53 -22 12 56 hvcurveto
            7 vlineto
            13 422 callsubr
            -13 hvcurveto
            -7 vlineto
            return
          </CharString>
          <CharString index="114">
            -30 -4 callsubr
            return
          </CharString>
          <CharString index="115">
            54 callgsubr
            -3 -7 vhcurveto
            return
          </CharString>
          <CharString index="116">
            -80 callsubr
            -239 155 callgsubr
            return
          </CharString>
          <CharString index="117">
            5 11 hvcurveto
            return
          </CharString>
          <CharString index="118">
            -103 56 -52 callgsubr
            return
          </CharString>
          <CharString index="119">
            32 452 callgsubr
            339 callsubr
            5 -14 callsubr
            return
          </CharString>
          <CharString index="120">
            rmoveto
            -14 12 12 8 7 14 3 18 rlinecurve
            18 -15 rlineto
            -231 vmoveto
            -60 -29 -33 -59 vhcurveto
            -86 hlineto
            -59 -29 33 60 hvcurveto
            46 vlineto
            60 21 31 59 vhcurveto
            101 hlineto
            60 21 -31 -60 hvcurveto
            -279 356 rmoveto
            29 32 16 -13 rlineto
            -1 hlineto
            -7 -3 -87 callgsubr
            -37 vlineto
            -146 107 -19 callsubr
            68 390 callgsubr
            18 -33 31 570 callsubr
            -45 -22 -19 -41 -64 vvcurveto
            -51 vlineto
            return
          </CharString>
          <CharString index="121">
            16 callsubr
            -12 hlineto
            return
          </CharString>
          <CharString index="122">
            -11 -5 -4 19 callgsubr
            return
          </CharString>
          <CharString index="123">
            490 callsubr
            89 61 callsubr
            return
          </CharString>
          <CharString index="124">
            hlineto
            -11 -5 -75 callsubr
            -32 vlineto
            return
          </CharString>
          <CharString index="125">
            vhcurveto
            323 -100 callsubr
            return
          </CharString>
          <CharString index="126">
            -58 29 callsubr
            return
          </CharString>
          <CharString index="127">
            -56 -26 24 57 hvcurveto
            33 -5 callgsubr
            return
          </CharString>
          <CharString index="128">
            -60 29 callgsubr
            return
          </CharString>
          <CharString index="129">
            95 callsubr
            102 365 callsubr
            -341 155 callsubr
            return
          </CharString>
          <CharString index="130">
            46 20 -14 -41 hvcurveto
            -41 vlineto
            -42 -18 -17 -48 vhcurveto
            -83 hlineto
            -48 -25 20 49 hvcurveto
            16 338 callsubr
            -36 30 callgsubr
            -189 vlineto
            519 callgsubr
            36 467 callgsubr
            77 4 vlineto
            -24 14 28 -9 36 hhcurveto
            81 hlineto
            81 46 41 76 hvcurveto
            47 428 callgsubr
            -93 hlineto
            -46 -20 14 42 hvcurveto
            10 vlineto
            42 18 16 48 vhcurveto
            156 367 callgsubr
            111 vlineto
            return
          </CharString>
          <CharString index="131">
            47 callgsubr
            341 vlineto
            56 27 31 56 vhcurveto
            return
          </CharString>
          <CharString index="132">
            244 callgsubr
            -5 vvcurveto
            -8 -9 callgsubr
            46 hlineto
            9 5 77 callgsubr
            8 6 351 callsubr
            return
          </CharString>
          <CharString index="133">
            5 10 callsubr
            return
          </CharString>
          <CharString index="134">
            -67 236 106 callsubr
            556 5 callsubr
            136 hlineto
            11 4 5 9 hvcurveto
            36 183 callsubr
            -365 hlineto
            -11 482 callgsubr
            -36 269 callgsubr
            136 hlineto
            8 2 -3 -6 hvcurveto
            -556 -13 callsubr
            return
          </CharString>
          <CharString index="135">
            hlineto
            17 callgsubr
            return
          </CharString>
          <CharString index="136">
            -28 51 callsubr
            return
          </CharString>
          <CharString index="137">
            -5 6 -11 vhcurveto
            return
          </CharString>
          <CharString index="138">
            rmoveto
            2 callsubr
            -677 -86 callsubr
            266 -101 callgsubr
            -318 vlineto
            -54 -31 69 callsubr
            -93 -56 -56 -93 -1 574 callgsubr
            33 15 601 callgsubr
            -118 hlineto
            -11 6 -5 9 150 callsubr
            hlineto
            return
          </CharString>
          <CharString index="139">
            31 58 hvcurveto
            232 414 callsubr
            return
          </CharString>
          <CharString index="140">
            128 -17 callsubr
            return
          </CharString>
          <CharString index="141">
            48 callgsubr
            -482 -13 callsubr
            return
          </CharString>
          <CharString index="142">
            329 callgsubr
            185 vlineto
            208 -233 rlineto
            -22 -21 -26 -18 -36 hhcurveto
            return
          </CharString>
          <CharString index="143">
            481 -95 callgsubr
            return
          </CharString>
          <CharString index="144">
            -67 callgsubr
            -162 244 rlineto
            return
          </CharString>
          <CharString index="145">
            92 callsubr
            167 268 callsubr
            return
          </CharString>
          <CharString index="146">
            431 callsubr
            6 -4 return
          </CharString>
          <CharString index="147">
            292 callsubr
            -207 vlineto
            405 callsubr
            144 169 callgsubr
            return
          </CharString>
          <CharString index="148">
            -5 3 -9 vhcurveto
            return
          </CharString>
          <CharString index="149">
            19 48 callsubr
            return
          </CharString>
          <CharString index="150">
            28 callsubr
            140 194 callgsubr
            return
          </CharString>
          <CharString index="151">
            33 -32 -59 hvcurveto
            -81 vlineto
            -59 return
          </CharString>
          <CharString index="152">
            rmoveto
            -54 -27 27 58 hvcurveto
            91 vlineto
            213 -175 rlineto
            -1 -2 -2 0 -2 hhcurveto
            6 225 395 callgsubr
            -165 vlineto
            -214 175 rlineto
            2 hlineto
            -151 60 -19 callsubr
            65 390 callgsubr
            20 -33 32 570 callsubr
            -41 -19 -23 -44 -64 vvcurveto
            -55 vlineto
            return
          </CharString>
          <CharString index="153">
            rmoveto
            -11 311 callsubr
            11 -1 vhcurveto
            107 -4 hlineto
            -24 -12 -11 -24 -38 vvcurveto
            -72 242 callgsubr
            vlineto
            -43 -14 -18 -35 -52 vvcurveto
            -41 vlineto
            return
          </CharString>
          <CharString index="154">
            vhcurveto
            88 -100 callsubr
            return
          </CharString>
          <CharString index="155">
            -21 -51 vhcurveto
            -89 vlineto
            -63 -36 -22 -50 vhcurveto
            return
          </CharString>
          <CharString index="156">
            rmoveto
            -84 callgsubr
            return
          </CharString>
          <CharString index="157">
            hlineto
            11 4 5 9 hvcurveto
            31 vlineto
            10 -4 5 -11 115 callgsubr
            return
          </CharString>
          <CharString index="158">
            30 58 hvcurveto
            228 vlineto
            6 return
          </CharString>
          <CharString index="159">
            vlineto
            54 30 30 56 vhcurveto
            return
          </CharString>
          <CharString index="160">
            -86 callsubr
            65 -28 callsubr
            -86 hmoveto
            -97 callgsubr
            -242 vlineto
            -61 -32 -20 -44 vhcurveto
            -17 hlineto
            -45 -31 20 61 hvcurveto
            242 414 callsubr
            7 vhcurveto
            endchar
          </CharString>
          <CharString index="161">
            -10 -4 339 callgsubr
            4 -5 10 vhcurveto
            42 hlineto
            9 -25 callgsubr
            43 248 callsubr
            return
          </CharString>
          <CharString index="162">
            59 callgsubr
            79 92 callgsubr
          </CharString>
          <CharString index="163">
            68 62 callgsubr
            return
          </CharString>
          <CharString index="164">
            -81 callgsubr
            98 -4 hlineto
            -23 -13 -9 return
          </CharString>
          <CharString index="165">
            -19 callgsubr
            endchar
          </CharString>
          <CharString index="166">
            rmoveto
            42 24 -15 -24 13 hvcurveto
            -7 6 2 -7 8 hhcurveto
            4 2 1 4 6 hvcurveto
            20 15 rlineto
            7 4 3 5 6 vvcurveto
            5 -2 5 -2 3 vhcurveto
            43 -21 -43 23 -59 455 callgsubr
            234 -99 callgsubr
            -658 hlineto
            120 callgsubr
            -54 callsubr
            309 338 callgsubr
            return
          </CharString>
          <CharString index="167">
            rmoveto
            -54 -31 -30 -56 vhcurveto
            -32 hlineto
            -59 -33 32 59 hvcurveto
            81 288 callgsubr
            38 hlineto
            11 4 5 10 hvcurveto
            31 184 callgsubr
            -46 hlineto
            return
          </CharString>
          <CharString index="168">
            vhcurveto
            25 71 callgsubr
            return
          </CharString>
          <CharString index="169">
            216 callgsubr
            -22 91 callsubr
            return
          </CharString>
          <CharString index="170">
            243 338 callsubr
            -36 575 callgsubr
            -48 vhcurveto
            -64 169 callsubr
            81 106 callgsubr
            162 419 callsubr
            7 vhcurveto
            68 92 callgsubr
          </CharString>
          <CharString index="171">
            vlineto
            41 18 16 48 vhcurveto
            120 84 callsubr
            100 414 callsubr
            7 vhcurveto
            return
          </CharString>
          <CharString index="172">
            244 callgsubr
            -3 vvcurveto
            -6 480 callsubr
            return
          </CharString>
          <CharString index="173">
            270 -4 623 rmoveto
            -10 -105 callgsubr
            10 vhcurveto
            341 hlineto
            217 callgsubr
            -57 hvcurveto
            -50 vlineto
            -83 -61 -183 -143 255 callsubr
            202 vlineto
            214 166 rlineto
            return
          </CharString>
          <CharString index="174">
            15 callsubr
            135 -44 callsubr
            return
          </CharString>
          <CharString index="175">
            371 callsubr
            48 70 vlineto
            91 54 42 95 hvcurveto
            57 -8 callsubr
            -53 vlineto
            -55 -27 -24 326 callgsubr
            -75 callsubr
            return
          </CharString>
          <CharString index="176">
            -30 -55 vhcurveto
            -32 hlineto
            -59 -33 32 59 hvcurveto
            81 116 callsubr
            38 0 callgsubr
            31 139 callgsubr
            -46 hlineto
            return
          </CharString>
          <CharString index="177">
            vhcurveto
            -90 -41 callgsubr
            return
          </CharString>
          <CharString index="178">
            rmoveto
            15 callsubr
            return
          </CharString>
          <CharString index="179">
            93 callsubr
            -6 return
          </CharString>
          <CharString index="180">
            rlineto
            -10 -8 -5 -5 -8 vvcurveto
            -7 321 callgsubr
            50 hlineto
            13 7 5 6 7 hvcurveto
            return
          </CharString>
          <CharString index="181">
            404 callsubr
            -515 hlineto
            -12 -4 -5 -10 hvcurveto
            -30 vlineto
            -10 4 -5 12 vhcurveto
            321 hlineto
            7 2 -4 -6 hvcurveto
            -48 vlineto
            -52 -24 -13 -40 vhcurveto
            -55 hlineto
            -93 -57 -57 -94 hvcurveto
            273 callgsubr
            -119 -185 rmoveto
            58 29 -34 -57 hvcurveto
            -97 vlineto
            99 callgsubr
            endchar
          </CharString>
          <CharString index="182">
            49 64 80 hvcurveto
            114 vlineto
            48 -14 35 -28 21 vhcurveto
            12 10 9 18 584 callsubr
            4 3 8 vhcurveto
            77 hlineto
            11 1 4 4 11 vvcurveto
            583 callgsubr
            endchar
          </CharString>
          <CharString index="183">
            169 callgsubr
            -9 -86 callsubr
            9 hlineto
            return
          </CharString>
          <CharString index="184">
            5 23 hhcurveto
            55 -99 callgsubr
            -61 hlineto
            return
          </CharString>
          <CharString index="185">
            rlineto
            -7 4 6 -5 228 callgsubr
            8 return
          </CharString>
          <CharString index="186">
            rmoveto
            6 8 3 5 6 vvcurveto
            6 -2 2 -7 5 vhcurveto
            -15 12 rlineto
            3 -4 -3 1 -3 hhcurveto
            -7 -4 -6 -6 -5 hvcurveto
            -32 -23 -23 -25 -39 hhcurveto
            -4 61 callgsubr
            -80 40 -53 77 vhcurveto
            6 hlineto
            13 9 3 0 hvcurveto
            -4 vlineto
            -1 -32 -27 -43 -35 hvcurveto
            144 callsubr
            9 hvcurveto
            return
          </CharString>
          <CharString index="187">
            hlineto
            11 4 194 callsubr
            -4 6 -11 vhcurveto
            return
          </CharString>
          <CharString index="188">
            270 callsubr
            135 205 callgsubr
            -302 304 callsubr
            8 vhcurveto
            return
          </CharString>
          <CharString index="189">
            -11 callsubr
            -84 vlineto
            return
          </CharString>
          <CharString index="190">
            -31 -56 hvcurveto
            -345 vlineto
            -45 callgsubr
            return
          </CharString>
          <CharString index="191">
            hlineto
            19 16 11 23 hvcurveto
            return
          </CharString>
          <CharString index="192">
            270 callsubr
            144 76 callsubr
            return
          </CharString>
          <CharString index="193">
            rmoveto
            94 callgsubr
            32 hlineto
            return
          </CharString>
          <CharString index="194">
            vlineto
            6 166 callgsubr
            82 -100 callsubr
            return
          </CharString>
          <CharString index="195">
            -4 16 18 131 callsubr
            return
          </CharString>
          <CharString index="196">
            hlineto
            94 callgsubr
            return
          </CharString>
          <CharString index="197">
            -48 vlineto
            -11 5 -14 callsubr
            37 hlineto
            10 5 4 11 hvcurveto
            45 vlineto
            59 31 24 59 vhcurveto
            39 hlineto
            return
          </CharString>
          <CharString index="198">
            365 callgsubr
            29 hlineto
            8 309 callsubr
            return
          </CharString>
          <CharString index="199">
            vlineto
            40 -13 18 callgsubr
            return
          </CharString>
          <CharString index="200">
            110 callgsubr
            4 return
          </CharString>
          <CharString index="201">
            181 callsubr
            -79 174 callsubr
            -36 -76 hvcurveto
            return
          </CharString>
          <CharString index="202">
            rmoveto
            24 callsubr
            return
          </CharString>
          <CharString index="203">
            vlineto
            92 408 callsubr
            -57 599 callgsubr
            6 -4 9 vhcurveto
            36 hlineto
            9 438 callgsubr
            43 370 callgsubr
            38 25 432 callgsubr
            -28 -24 -55 vhcurveto
            -294 173 callgsubr
            28 hlineto
            9 5 5 8 580 callsubr
            15 -4 16 18 vvcurveto
            35 19 16 39 vhcurveto
            138 -47 hlineto
            335 callsubr
            return
          </CharString>
          <CharString index="204">
            rmoveto
            -80 -49 -36 -76 hvcurveto
            -12 vlineto
            -78 43 -37 86 vhcurveto
            70 hlineto
            49 504 callgsubr
            -20 -16 -48 vhcurveto
            -61 393 callsubr
            19 198 callsubr
            -212 vlineto
            -12 5 -14 callsubr
            38 hlineto
            9 6 4 12 hvcurveto
            97 4 vlineto
            -24 14 27 444 callsubr
            -46 -20 391 callgsubr
            return
          </CharString>
          <CharString index="205">
            rmoveto
            10 -4 3 -9 vhcurveto
            -43 hlineto
            -9 143 callsubr
            return
          </CharString>
          <CharString index="206">
            hlineto
            -11 -5 -6 127 callsubr
            108 return
          </CharString>
          <CharString index="207">
            37 callgsubr
            432 callsubr
            return
          </CharString>
          <CharString index="208">
            328 callgsubr
            63 hlineto
            36 28 10 24 14 hvcurveto
            -93 callsubr
            endchar
          </CharString>
          <CharString index="209">
            -10 -4 512 callgsubr
            4 -14 callsubr
            42 hlineto
            9 5 4 11 hvcurveto
            42 vlineto
            11 415 callgsubr
            return
          </CharString>
          <CharString index="210">
            -53 -29 -21 -37 vhcurveto
            return
          </CharString>
          <CharString index="211">
            -12 5 8 -8 13 hhcurveto
            29 528 callsubr
            -5 return
          </CharString>
          <CharString index="212">
            -88 -47 88 rlineto
            6 -3 -4 2 -7 hhcurveto
            -34 hlineto
            return
          </CharString>
          <CharString index="213">
            hmoveto
            23 callgsubr
            return
          </CharString>
          <CharString index="214">
            -494 -80 886 rmoveto
            243 callgsubr
            -34 193 callsubr
            -38 316 callgsubr
            34 hlineto
            9 5 4 11 hvcurveto
            16 -158 rmoveto
            79 39 41 84 hvcurveto
            6 192 callsubr
            -75 532 callsubr
            -30 hlineto
            -11 -6 557 callgsubr
          </CharString>
          <CharString index="215">
            -86 callsubr
            327 154 callsubr
            -27 5 -21 11 -16 vhcurveto
            -164 173 callgsubr
            29 hlineto
            8 5 6 7 580 callsubr
            16 -4 15 18 vvcurveto
            35 19 16 39 vhcurveto
            148 hlineto
            -14 -18 -7 -24 -30 vvcurveto
            -37 vlineto
            -90 53 -48 88 vhcurveto
            102 hlineto
            return
          </CharString>
          <CharString index="216">
            44 87 hvcurveto
            152 414 callsubr
            7 vhcurveto
            return
          </CharString>
          <CharString index="217">
            46 callsubr
            -90 54 -46 90 vhcurveto
            return
          </CharString>
          <CharString index="218">
            -22 -63 vhcurveto
            -80 491 callsubr
            10 -51 callgsubr
            return
          </CharString>
          <CharString index="219">
            -11 5 -14 callsubr
            38 hlineto
            9 return
          </CharString>
          <CharString index="220">
            311 rmoveto
            -61 -32 -20 -44 vhcurveto
            -17 hlineto
            -45 -31 20 61 hvcurveto
            242 414 callsubr
            7 vhcurveto
            149 -101 callgsubr
            return
          </CharString>
          <CharString index="221">
            268 rmoveto
            -69 -38 -44 -77 vhcurveto
            -64 hlineto
            -75 -38 41 69 hvcurveto
            return
          </CharString>
          <CharString index="222">
            176 callgsubr
            7 vhcurveto
            return
          </CharString>
          <CharString index="223">
            vlineto
            59 31 32 59 vhcurveto
            return
          </CharString>
          <CharString index="224">
            294 callgsubr
            -307 vlineto
            -60 -30 -39 -72 -1 vhcurveto
            -90 hlineto
            -56 -25 23 58 hvcurveto
            27 218 callgsubr
            return
          </CharString>
          <CharString index="225" raw="1">
            a906b9ab 9aa89b1f 8ffb0af7 201d0b
          </CharString>
          <CharString index="226">
            hlineto
            158 callgsubr
            return
          </CharString>
          <CharString index="227">
            44 162 callgsubr
            -36 hlineto
            -59 -31 26 return
          </CharString>
          <CharString index="228">
            105 callsubr
            -8 return
          </CharString>
          <CharString index="229">
            hlineto
            -8 -5 -5 -7 -4 2 -3 2 -4 hvcurveto
            return
          </CharString>
          <CharString index="230">
            16 vlineto
            84 49 38 return
          </CharString>
          <CharString index="231">
            -94 callsubr
            -315 vlineto
            -54 -30 -37 -63 vhcurveto
            -35 hlineto
            -60 -27 callsubr
            4 194 callsubr
            -4 6 -11 vhcurveto
            -54 hlineto
            return
          </CharString>
          <CharString index="232">
            106 callsubr
            675 vlineto
            145 callgsubr
            return
          </CharString>
          <CharString index="233">
            92 callsubr
            168 394 callgsubr
            return
          </CharString>
          <CharString index="234">
            -9 hvcurveto
            -32 -49 callsubr
            return
          </CharString>
          <CharString index="235">
            -22 -63 hvcurveto
            -30 vlineto
            -12 return
          </CharString>
          <CharString index="236">
            94 callsubr
            -21 368 callgsubr
            6 callsubr
            return
          </CharString>
          <CharString index="237">
            366 callsubr
            -5 3 return
          </CharString>
          <CharString index="238">
            vvcurveto
            34 299 callsubr
            return
          </CharString>
          <CharString index="239">
            45 -17 -38 19 -59 507 callsubr
            508 callsubr
            94 vhcurveto
            43 162 callgsubr
            -35 hlineto
            -59 -32 323 callsubr
            6 -5 9 207 callsubr
            return
          </CharString>
          <CharString index="240">
            6 4 11 hvcurveto
            538 vlineto
            6 2 4 8 238 callgsubr
          </CharString>
          <CharString index="241">
            -38 -42 -60 -25 4 168 callgsubr
            return
          </CharString>
          <CharString index="242">
            263 callsubr
            5 174 callgsubr
            return
          </CharString>
          <CharString index="243">
            vlineto
            46 24 24 45 vhcurveto
            62 80 callsubr
            -62 hlineto
            -45 -24 23 46 hvcurveto
            return
          </CharString>
          <CharString index="244">
            -9 -5 -4 -11 hvcurveto
            -42 262 callsubr
            return
          </CharString>
          <CharString index="245">
            22 hlineto
            86 55 45 99 hvcurveto
            return
          </CharString>
          <CharString index="246">
            rmoveto
            11 1 4 5 10 vvcurveto
            33 184 callgsubr
            -282 199 callgsubr
            49 hlineto
            47 36 -20 -66 hvcurveto
            -65 vlineto
            -60 -25 -27 -58 70 callsubr
            107 486 callgsubr
            return
          </CharString>
          <CharString index="247">
            -10 282 callsubr
            return
          </CharString>
          <CharString index="248">
            -86 35 -43 87 550 callsubr
            26 callsubr
            26 139 callgsubr
            -38 hlineto
            -51 -7 26 46 48 12 28 52 hvcurveto
            35 hlineto
            94 10 -69 -107 50 hvcurveto
            -9 4 5 -3 6 hhcurveto
            4 3 1 1 3 hvcurveto
            23 10 rlineto
            7 3 3 4 5 vvcurveto
            3 -1 4 -2 5 vhcurveto
            107 -46 -29 103 -132 hhcurveto
            return
          </CharString>
          <CharString index="249">
            hhcurveto
            -173 hmoveto
            -9 262 callgsubr
            -4 2 -5 8 hhcurveto
            24 578 callsubr
            77 105 rlineto
            9 7 -4 5 -9 hhcurveto
            endchar
          </CharString>
          <CharString index="250">
            462 callgsubr
            6 513 callsubr
            2 vhcurveto
            34 95 rlineto
            8 24 6 17 24 vvcurveto
            return
          </CharString>
          <CharString index="251">
            -69 -87 517 callsubr
            -3 vvcurveto
            -7 321 callgsubr
            42 hlineto
            15 6 8 10 return
          </CharString>
          <CharString index="252">
            rmoveto
            99 callgsubr
            73 hlineto
            58 29 -34 -57 hvcurveto
            -377 336 rmoveto
            283 callgsubr
            -85 46 return
          </CharString>
          <CharString index="253">
            hlineto
            -58 -28 32 callsubr
            7 vhcurveto
            return
          </CharString>
          <CharString index="254">
            21 15 9 28 41 vvcurveto
            137 414 callsubr
            8 vhcurveto
            return
          </CharString>
          <CharString index="255">
            36 21 32 15 hvcurveto
            4 return
          </CharString>
          <CharString index="256">
            hhcurveto
            161 callgsubr
            return
          </CharString>
          <CharString index="257">
            537 callsubr
            314 vlineto
            54 31 30 56 vhcurveto
            32 hlineto
            59 -70 callsubr
            return
          </CharString>
          <CharString index="258">
            -9 276 callgsubr
            return
          </CharString>
          <CharString index="259">
            177 callgsubr
            133 -101 callgsubr
            return
          </CharString>
          <CharString index="260">
            hlineto
            -11 5 -14 callsubr
            38 hlineto
            10 5 4 11 hvcurveto
            538 414 callsubr
            7 348 callgsubr
            return
          </CharString>
          <CharString index="261">
            -4 hlineto
            -24 327 callgsubr
            return
          </CharString>
          <CharString index="262">
            vlineto
            215 callgsubr
            return
          </CharString>
          <CharString index="263">
            hlineto
            47 callgsubr
            return
          </CharString>
          <CharString index="264">
            -9 212 callgsubr
            return
          </CharString>
          <CharString index="265">
            485 callgsubr
            -4 vlineto
            259 callgsubr
            return
          </CharString>
          <CharString index="266">
            hhcurveto
            -34 547 callgsubr
            -7 -5 hvcurveto
            -63 -107 rlineto
            -7 -4 2 -5 8 hhcurveto
            return
          </CharString>
          <CharString index="267">
            -29 callsubr
            -48 604 callgsubr
            -40 vhcurveto
            -55 hlineto
            return
          </CharString>
          <CharString index="268">
            198 callgsubr
            -97 hlineto
            return
          </CharString>
          <CharString index="269">
            -58 595 callgsubr
            7 vhcurveto
            return
          </CharString>
          <CharString index="270">
            376 callsubr
            -12 vlineto
            -60 return
          </CharString>
          <CharString index="271" raw="1">
            591e8006 800b  
          </CharString>
          <CharString index="272">
            -7 253 callgsubr
            return
          </CharString>
          <CharString index="273">
            vhcurveto
            132 -9 rlineto
            11 -1 3 6 9 vvcurveto
            39 vlineto
            9 -3 4 -11 -1 vhcurveto
            -133 -10 11 159 rlineto
            -35 callgsubr
            -45 hlineto
            -9 -6 -3 -11 1 hvcurveto
            11 -159 -131 10 rlineto
            -11 1 -3 -4 -9 vvcurveto
            -39 vlineto
            -9 3 -6 11 1 vhcurveto
            return
          </CharString>
          <CharString index="274">
            104 callsubr
            16 return
          </CharString>
          <CharString index="275">
            49 97 hvcurveto
            87 vlineto
            90 return
          </CharString>
          <CharString index="276">
            hlineto
            -59 -29 29 60 hvcurveto
            return
          </CharString>
          <CharString index="277">
            rmoveto
            -10 5 -4 8 51 callgsubr
            -8 228 callsubr
            -171 -101 rmoveto
            -10 5 -4 8 51 callgsubr
            -8 228 callsubr
            endchar
          </CharString>
          <CharString index="278">
            rmoveto
            -10 5 309 callgsubr
            -4 3 -9 vhcurveto
            -43 hlineto
            -8 228 callsubr
            -171 -101 rmoveto
            -10 5 -4 8 51 callgsubr
            -8 228 callsubr
            endchar
          </CharString>
          <CharString index="279">
            344 callsubr
            5 -5 10 -51 callgsubr
            28 return
          </CharString>
          <CharString index="280">
            4 8 -100 callgsubr
            return
          </CharString>
          <CharString index="281">
            vlineto
            -7 -3 265 callgsubr
            -49 return
          </CharString>
          <CharString index="282">
            6 590 callgsubr
            63 107 rlineto
            7 4 return
          </CharString>
          <CharString index="283">
            8 222 callgsubr
            return
          </CharString>
          <CharString index="284">
            199 callgsubr
            17 hlineto
            47 37 508 callgsubr
            -26 -27 -57 vhcurveto
            -100 307 callsubr
            116 284 callsubr
            4 return
          </CharString>
          <CharString index="285">
            hlineto
            9 182 callsubr
            return
          </CharString>
          <CharString index="286">
            57 74 -30 62 hhcurveto
            30 29 6 9 22 hvcurveto
            16 6 5 6 12 vvcurveto
            31 vlineto
            7 -4 4 -6 vhcurveto
            -13 -32 -24 -45 -63 -68 30 -62 hhcurveto
            -30 -29 -6 -9 -22 hvcurveto
            -15 -6 -6 -6 -12 vvcurveto
            -31 vlineto
            -7 4 -4 7 vhcurveto
            13 32 24 44 hhcurveto
            return
          </CharString>
          <CharString index="287">
            392 callsubr
            -4 -5 -7 -4 1 561 callsubr
            return
          </CharString>
          <CharString index="288">
            -95 callgsubr
            310 -101 callgsubr
            return
          </CharString>
          <CharString index="289">
            53 callgsubr
            615 89 callgsubr
            return
          </CharString>
          <CharString index="290">
            vlineto
            9 -4 5 -11 vhcurveto
            return
          </CharString>
          <CharString index="291">
            hlineto
            9 5 5 8 return
          </CharString>
          <CharString index="292">
            -37 callgsubr
            endchar
          </CharString>
          <CharString index="293">
            279 callgsubr
            7 146 callgsubr
          </CharString>
          <CharString index="294">
            693 rmoveto
            7 -5 -6 3 -9 159 callsubr
            33 hlineto
            8 4 2 6 2 hvcurveto
            48 238 callsubr
            1 5 7 -4 hvcurveto
            endchar
          </CharString>
          <CharString index="295">
            260 callsubr
            10 346 callgsubr
            return
          </CharString>
          <CharString index="296">
            -4 264 callgsubr
            8 518 callsubr
            return
          </CharString>
          <CharString index="297">
            vlineto
            40 -14 18 callgsubr
            168 394 callgsubr
            return
          </CharString>
          <CharString index="298">
            110 callsubr
            460 callgsubr
            return
          </CharString>
          <CharString index="299">
            424 callgsubr
            -7 -5 -14 hvcurveto
            -7 vlineto
            -49 -17 -18 -49 vhcurveto
            return
          </CharString>
          <CharString index="300">
            hlineto
            251 callsubr
            return
          </CharString>
          <CharString index="301">
            5 10 hvcurveto
            32 vlineto
            9 return
          </CharString>
          <CharString index="302">
            252 callsubr
            vhcurveto
            return
          </CharString>
          <CharString index="303">
            237 callgsubr
            9 4 4 10 hvcurveto
            return
          </CharString>
          <CharString index="304">
            404 callgsubr
            593 338 callsubr
            -38 30 callgsubr
            return
          </CharString>
          <CharString index="305">
            369 callgsubr
            -38 30 callgsubr
            return
          </CharString>
          <CharString index="306">
            312 callgsubr
            416 callgsubr
            return
          </CharString>
          <CharString index="307">
            -7 -3 -3 -8 569 callsubr
            return
          </CharString>
          <CharString index="308">
            vhcurveto
            -88 -116 25 callsubr
            return
          </CharString>
          <CharString index="309">
            vvcurveto
            11 vlineto
            12 -5 5 585 callsubr
            -5 -5 -12 hvcurveto
            -10 vlineto
            -61 -32 -27 -59 vhcurveto
            -73 hlineto
            -59 -31 30 59 hvcurveto
            43 vlineto
            59 31 30 59 vhcurveto
            139 hlineto
            19 16 11 24 115 callsubr
            return
          </CharString>
          <CharString index="310">
            vlineto
            11 -5 4 return
          </CharString>
          <CharString index="311">
            hlineto
            -88 -48 -37 -80 hvcurveto
            -11 vlineto
            -43 18 -28 34 -14 vhcurveto
            -4 vlineto
            -35 -15 -17 -31 -42 vvcurveto
            -11 vlineto
            -86 48 -36 88 vhcurveto
            81 hlineto
            63 66 21 101 2 hvcurveto
            4 5 0 4 hhcurveto
            62 hlineto
            36 28 10 24 14 hvcurveto
            4 return
          </CharString>
          <CharString index="312">
            vlineto
            -60 -26 -27 160 callgsubr
            82 52 48 95 hvcurveto
            return
          </CharString>
          <CharString index="313">
            218 callsubr
            8 return
          </CharString>
          <CharString index="314">
            -51 callgsubr
            28 20 52 53 453 callgsubr
            return
          </CharString>
          <CharString index="315">
            vhcurveto
            32 hlineto
            59 44 callsubr
            return
          </CharString>
          <CharString index="316">
            163 callsubr
            -23 -19 return
          </CharString>
          <CharString index="317">
            vlineto
            165 callsubr
            return
          </CharString>
          <CharString index="318">
            -102 rlineto
            -9 -5 2 -5 9 hhcurveto
            33 hlineto
            7 7 151 callgsubr
            -9 hhcurveto
            endchar
          </CharString>
          <CharString index="319">
            -3 -4 -7 vhcurveto
            return
          </CharString>
          <CharString index="320">
            34 24 hvcurveto
            2 3 4 5 4 vvcurveto
            6 -3 5 334 callgsubr
            -6 -5 return
          </CharString>
          <CharString index="321">
            9 373 callgsubr
            return
          </CharString>
          <CharString index="322">
            -88 -58 -47 -101 hvcurveto
            return
          </CharString>
          <CharString index="323">
            4 -133 hlineto
            -11 return
          </CharString>
          <CharString index="324">
            -60 -30 -40 -72 -1 vhcurveto
            245 callgsubr
            return
          </CharString>
          <CharString index="325">
            220 callsubr
            2 -5 9 hhcurveto
            33 hlineto
            return
          </CharString>
          <CharString index="326">
            175 callsubr
            -1 5 return
          </CharString>
          <CharString index="327">
            rmoveto
            -9 -8 363 callsubr
            return
          </CharString>
          <CharString index="328">
            4 12 hvcurveto
            31 vlineto
            96 return
          </CharString>
          <CharString index="329">
            vlineto
            7 3 4 return
          </CharString>
          <CharString index="330">
            hlineto
            -237 -273 208 callgsubr
            7 4 8 6 hvcurveto
            191 228 rlineto
            16 19 4 15 34 vvcurveto
            1 vlineto
            -21 callgsubr
            endchar
          </CharString>
          <CharString index="331">
            219 callsubr
            -8 hhcurveto
            return
          </CharString>
          <CharString index="332">
            rmoveto
            34 hlineto
            10 5 590 callgsubr
            64 107 rlineto
            7 4 return
          </CharString>
          <CharString index="333">
            347 callsubr
            7 hvcurveto
            return
          </CharString>
          <CharString index="334">
            -9 4 -5 11 vhcurveto
            return
          </CharString>
          <CharString index="335">
            -5 -4 -10 hvcurveto
            return
          </CharString>
          <CharString index="336">
            rmoveto
            68 callgsubr
            return
          </CharString>
          <CharString index="337">
            -94 347 626 rmoveto
            10 4 -4 7 -10 hhcurveto
            -42 hlineto
            -11 -4 -5 -10 -4 hvcurveto
            -28 -73 -166 -466 -29 -73 rrcurveto
            -11 -4 6 -5 10 hhcurveto
            41 hlineto
            10 5 4 11 4 hvcurveto
            endchar
          </CharString>
          <CharString index="338">
            hlineto
            10 5 4 11 hvcurveto
            538 414 callsubr
            8 vhcurveto
            75 hlineto
            12 return
          </CharString>
          <CharString index="339">
            554 callgsubr
            -8 vhcurveto
            -134 hlineto
            return
          </CharString>
          <CharString index="340">
            270 callgsubr
            45 -104 callgsubr
            -242 hlineto
            21 callgsubr
            return
          </CharString>
          <CharString index="341">
            338 callsubr
            -75 hlineto
            -15 -8 -5 -9 -12 hvcurveto
            -152 -118 rlineto
            255 414 callsubr
            8 vhcurveto
            341 hlineto
            12 3 5 10 hvcurveto
            30 185 callsubr
          </CharString>
          <CharString index="342">
            29 308 callgsubr
            -28 vlineto
            -61 -32 -29 -59 vhcurveto
            -78 246 callgsubr
            51 24 30 42 hvcurveto
            return
          </CharString>
          <CharString index="343">
            20 48 hvcurveto
            19 338 callsubr
            -37 30 callgsubr
            -212 vlineto
            -12 5 -14 callsubr
            37 335 callgsubr
            97 4 vlineto
            -24 14 28 -8 36 hhcurveto
            59 hlineto
            return
          </CharString>
          <CharString index="344">
            hvcurveto
            -74 210 callsubr
            -117 hlineto
            -80 -49 -36 -77 hvcurveto
            -16 vlineto
            -78 43 -37 86 vhcurveto
            return
          </CharString>
          <CharString index="345">
            88 47 -88 rlineto
            -6 3 4 -2 7 hhcurveto
            34 hlineto
            8 return
          </CharString>
          <CharString index="346">
            -5 -7 4 hvcurveto
            63 -107 rlineto
            -7 5 6 -3 return
          </CharString>
          <CharString index="347">
            -5 -5 19 callgsubr
            return
          </CharString>
          <CharString index="348">
            431 callgsubr
            43 hlineto
            return
          </CharString>
          <CharString index="349">
            -60 -29 211 callgsubr
            return
          </CharString>
          <CharString index="350">
            -18 -11 -13 -17 hvcurveto
            return
          </CharString>
          <CharString index="351">
            91 320 callsubr
            return
          </CharString>
          <CharString index="352">
            -89 vlineto
            -94 58 -55 92 vhcurveto
            35 hlineto
            46 35 296 callsubr
            9 vhcurveto
            38 -13 callgsubr
            537 414 callsubr
            8 vhcurveto
            75 hlineto
            11 return
          </CharString>
          <CharString index="353">
            -55 -28 -19 -39 331 callsubr
            return
          </CharString>
          <CharString index="354">
            hlineto
            94 56 53 96 hvcurveto
            return
          </CharString>
          <CharString index="355">
            vlineto
            243 callgsubr
            return
          </CharString>
          <CharString index="356">
            rmoveto
            20 callsubr
            return
          </CharString>
          <CharString index="357">
            401 callsubr
            5 4 2 5 3 vhcurveto
            33 95 rlineto
            return
          </CharString>
          <CharString index="358">
            -9 228 callsubr
            return
          </CharString>
          <CharString index="359">
            601 callsubr
            -8 return
          </CharString>
          <CharString index="360">
            -54 -23 -17 -54 vhcurveto
            -64 hlineto
            -56 -20 17 46 hvcurveto
            11 vlineto
            42 20 18 48 vhcurveto
            29 hlineto
            11 5 4 10 hvcurveto
            30 139 callgsubr
            -29 hlineto
            -48 -20 17 42 hvcurveto
            return
          </CharString>
          <CharString index="361">
            502 callsubr
            -21 hvcurveto
            -13 5 8 -7 13 hhcurveto
            29 hlineto
            9 5 5 176 callsubr
            8 hvcurveto
            -5 15 503 callgsubr
            return
          </CharString>
          <CharString index="362">
            73 callsubr
            194 152 rlineto
            -148 vlineto
            -11 5 -14 callsubr
            38 hlineto
            10 5 4 11 hvcurveto
            return
          </CharString>
          <CharString index="363">
            rmoveto
            28 callgsubr
            return
          </CharString>
          <CharString index="364">
            559 callsubr
            -13 vlineto
            -44 -20 -16 -46 vhcurveto
            -90 hlineto
            return
          </CharString>
          <CharString index="365">
            4 12 -7 hvcurveto
            -146 423 callsubr
            return
          </CharString>
          <CharString index="366">
            563 rmoveto
            -104 callsubr
            return
          </CharString>
          <CharString index="367">
            32 19 601 callgsubr
            -129 hlineto
            -11 5 -5 return
          </CharString>
          <CharString index="368">
            -60 -19 32 55 55 19 32 60 60 19 -32 -55 return
          </CharString>
          <CharString index="369">
            241 callgsubr
            10 return
          </CharString>
          <CharString index="370">
            241 callsubr
            8 return
          </CharString>
          <CharString index="371">
            rlineto
            10 -6 372 callsubr
            return
          </CharString>
          <CharString index="372">
            55 93 hvcurveto
            347 vlineto
            93 return
          </CharString>
          <CharString index="373">
            vlineto
            -10 3 -5 12 vhcurveto
            return
          </CharString>
          <CharString index="374">
            vlineto
            385 callsubr
            return
          </CharString>
          <CharString index="375">
            vlineto
            -16 callgsubr
            return
          </CharString>
          <CharString index="376">
            hlineto
            57 376 callsubr
            return
          </CharString>
          <CharString index="377">
            -6 -4 3 8 hvcurveto
            return
          </CharString>
          <CharString index="378">
            235 60 callsubr
            return
          </CharString>
          <CharString index="379">
            55 418 rmoveto
            -10 -9 callgsubr
            43 hlineto
            9 4 3 10 hvcurveto
            213 vlineto
            9 -5 3 -5 -5 -4 -3 -5 -3 vhcurveto
            -33 -94 rlineto
            -8 -24 -7 -17 -25 vvcurveto
            return
          </CharString>
          <CharString index="380">
            18 49 604 callsubr
            -6 5 -10 vhcurveto
            return
          </CharString>
          <CharString index="381">
            vlineto
            -66 -36 -22 -50 vhcurveto
            -90 hlineto
            -12 -3 return
          </CharString>
          <CharString index="382">
            -151 315 callsubr
            return
          </CharString>
          <CharString index="383">
            vlineto
            -11 6 -5 9 8 vhcurveto
            140 128 rlineto
            10 8 4 4 15 vvcurveto
            26 vlineto
            14 -5 4 -9 8 vhcurveto
            -140 128 rlineto
            -9 8 -6 -5 -10 vvcurveto
            return
          </CharString>
          <CharString index="384">
            vlineto
            -20 callgsubr
            return
          </CharString>
          <CharString index="385">
            vlineto
            10 -6 5 -9 -8 vhcurveto
            -140 -128 rlineto
            -9 -8 -5 -4 -14 vvcurveto
            -26 vlineto
            -15 4 -4 10 -8 vhcurveto
            140 -128 rlineto
            9 -8 6 5 11 vvcurveto
            return
          </CharString>
          <CharString index="386">
            -56 callsubr
            -20 hlineto
            167 callgsubr
            return
          </CharString>
          <CharString index="387">
            12 56 hvcurveto
            7 vlineto
            13 422 callsubr
            -13 hvcurveto
            -7 vlineto
            -96 return
          </CharString>
          <CharString index="388">
            -5 9 hhcurveto
            33 hlineto
            7 179 callgsubr
            return
          </CharString>
          <CharString index="389">
            hvcurveto
            -43 vlineto
            -10 return
          </CharString>
          <CharString index="390">
            -139 278 613 rmoveto
            372 callgsubr
            24 170 callgsubr
            -201 119 callsubr
            -24 203 callgsubr
          </CharString>
          <CharString index="391">
            hlineto
            83 261 callgsubr
            return
          </CharString>
          <CharString index="392">
            -87 callgsubr
            -160 210 callsubr
            -174 hlineto
            return
          </CharString>
          <CharString index="393">
            300 callsubr
            -92 vhcurveto
            return
          </CharString>
          <CharString index="394">
            -9 vhcurveto
            -46 hlineto
            -9 -4 return
          </CharString>
          <CharString index="395">
            vlineto
            10 -4 5 return
          </CharString>
          <CharString index="396">
            hlineto
            56 376 callsubr
            -39 vlineto
            -59 -23 -19 -55 vhcurveto
            -15 hlineto
            64 -10 -60 31 -68 hhcurveto
            -58 -38 -19 -44 -16 hvcurveto
            -4 hlineto
            433 callgsubr
            return
          </CharString>
          <CharString index="397">
            -494 -142 709 rmoveto
            -99 156 rlineto
            10 -6 -6 3 -10 hhcurveto
            -45 122 callsubr
            59 -87 46 -68 33 -41 return
          </CharString>
          <CharString index="398">
            rmoveto
            -10 332 callgsubr
            9 hhcurveto
            32 hlineto
            8 488 callsubr
          </CharString>
          <CharString index="399">
            -11 -8 -103 callgsubr
            8 -5 11 vhcurveto
            67 -101 callgsubr
            return
          </CharString>
          <CharString index="400">
            rrcurveto
            -8 5 7 -4 299 callgsubr
            5 6 527 callgsubr
            -3 9 hvcurveto
            return
          </CharString>
          <CharString index="401">
            -10 424 callsubr
            10 vhcurveto
            46 hlineto
            10 -25 callgsubr
            return
          </CharString>
          <CharString index="402">
            -9 4 -5 9 vhcurveto
            46 hlineto
            9 5 5 9 hvcurveto
            94 248 callsubr
            return
          </CharString>
          <CharString index="403">
            -10 callgsubr
            546 callgsubr
            -5 return
          </CharString>
          <CharString index="404">
            -54 -29 -36 -62 vhcurveto
            return
          </CharString>
          <CharString index="405">
            54 31 30 56 vhcurveto
            return
          </CharString>
          <CharString index="406">
            19 17 39 vhcurveto
            return
          </CharString>
          <CharString index="407">
            vlineto
            93 -56 55 return
          </CharString>
          <CharString index="408">
            rmoveto
            9 -5 -7 4 -10 hhcurveto
            -60 553 callsubr
            7 518 callsubr
            9 3 397 callgsubr
          </CharString>
          <CharString index="409">
            256 603 callsubr
            -4 5 -11 vhcurveto
            -244 -86 callsubr
            244 hlineto
            11 4 5 10 hvcurveto
            return
          </CharString>
          <CharString index="410">
            471 350 callsubr
            -458 -86 callsubr
            458 463 callgsubr
            return
          </CharString>
          <CharString index="411">
            vlineto
            -11 5 -14 callsubr
            38 hlineto
            10 5 4 11 hvcurveto
            87 222 callsubr
            return
          </CharString>
          <CharString index="412">
            21 vhcurveto
            4 vlineto
            31 17 16 33 48 vvcurveto
            134 414 callsubr
            7 vhcurveto
            return
          </CharString>
          <CharString index="413">
            571 callgsubr
            18 92 callsubr
            return
          </CharString>
          <CharString index="414">
            459 callgsubr
            -9 4 -5 11 vhcurveto
            return
          </CharString>
          <CharString index="415">
            rmoveto
            12 3 5 10 hvcurveto
            30 -37 callgsubr
            return
          </CharString>
          <CharString index="416">
            175 callgsubr
            -4 16 return
          </CharString>
          <CharString index="417" raw="1">
            1ef7d726 1d0b  
          </CharString>
          <CharString index="418">
            -57 callgsubr
            -4 return
          </CharString>
          <CharString index="419">
            vlineto
            38 -13 28 548 callsubr
            return
          </CharString>
          <CharString index="420">
            -4 vlineto
            -37 -16 -27 -32 -67 vvcurveto
            return
          </CharString>
          <CharString index="421">
            vlineto
            -10 4 -5 9 vhcurveto
            51 hlineto
            return
          </CharString>
          <CharString index="422">
            rmoveto
            103 callsubr
            return
          </CharString>
          <CharString index="423">
            11 434 callsubr
            return
          </CharString>
          <CharString index="424">
            vlineto
            59 29 32 return
          </CharString>
          <CharString index="425">
            -2 -6 -2 hvcurveto
            -48 354 callsubr
            return
          </CharString>
          <CharString index="426">
            152 vlineto
            6 return
          </CharString>
          <CharString index="427">
            56 55 93 hvcurveto
            return
          </CharString>
          <CharString index="428">
            hvcurveto
            -99 631 rmoveto
            -75 -37 -37 -77 hvcurveto
            -70 vlineto
            -76 37 -38 75 vhcurveto
            35 hlineto
            76 36 38 76 hvcurveto
            70 vlineto
            77 -36 37 -76 vhcurveto
            return
          </CharString>
          <CharString index="429">
            rlineto
            -20 -15 2 -34 32 hhcurveto
            35 42 15 19 1 hvcurveto
            10 2 -5 3 -19 hhcurveto
            -1 -7 -23 -1 -11 hhcurveto
            -2 32 46 23 17 hvcurveto
            return
          </CharString>
          <CharString index="430">
            26 65 hvcurveto
            103 -18 callgsubr
            -63 vhcurveto
            -80 vlineto
            -11 return
          </CharString>
          <CharString index="431">
            rmoveto
            29 14 3 8 16 hhcurveto
            20 5 -10 -38 hvcurveto
            -27 vlineto
            -8 3 -3 return
          </CharString>
          <CharString index="432">
            450 rmoveto
            449 callsubr
            return
          </CharString>
          <CharString index="433">
            rlineto
            5 -6 548 callgsubr
            return
          </CharString>
          <CharString index="434">
            551 callgsubr
            8 7 hvcurveto
            return
          </CharString>
          <CharString index="435">
            9 hvcurveto
            36 vlineto
            9 return
          </CharString>
          <CharString index="436">
            -6 4 -9 vhcurveto
            return
          </CharString>
          <CharString index="437">
            rmoveto
            -59 -28 30 58 hvcurveto
            228 382 callgsubr
            -227 vlineto
            -54 -29 -35 -61 vhcurveto
            return
          </CharString>
          <CharString index="438">
            vhcurveto
            -78 -27 callgsubr
            -43 vlineto
            22 -29 return
          </CharString>
          <CharString index="439">
            -69 -37 -44 -78 vhcurveto
            -63 hlineto
            -75 -38 41 69 hvcurveto
            return
          </CharString>
          <CharString index="440">
            11 3 325 callgsubr
            return
          </CharString>
          <CharString index="441">
            hlineto
            -58 -24 23 57 hvcurveto
            return
          </CharString>
          <CharString index="442">
            -88 54 -78 114 vhcurveto
            return
          </CharString>
          <CharString index="443">
            vlineto
            9 -3 4 -11 vhcurveto
            return
          </CharString>
          <CharString index="444">
            528 callgsubr
            -10 hvcurveto
            return
          </CharString>
          <CharString index="445">
            203 callsubr
            -10 vhcurveto
            return
          </CharString>
          <CharString index="446">
            -204 hlineto
            -11 return
          </CharString>
          <CharString index="447">
            790 rmoveto
            243 callgsubr
            -47 hlineto
            -9 424 callsubr
            9 vhcurveto
            47 hlineto
            9 -25 callgsubr
            return
          </CharString>
          <CharString index="448">
            362 callsubr
            9 vhcurveto
            38 498 callgsubr
          </CharString>
          <CharString index="449">
            hlineto
            59 25 128 callsubr
            5 -4 9 576 callgsubr
            -53 469 callgsubr
          </CharString>
          <CharString index="450">
            hlineto
            59 25 -22 -63 hvcurveto
            -30 vlineto
            -12 6 445 callgsubr
          </CharString>
          <CharString index="451">
            66 hvcurveto
            102 -18 callgsubr
            -62 vhcurveto
            -81 vlineto
            -11 return
          </CharString>
          <CharString index="452">
            -321 381 callsubr
            return
          </CharString>
          <CharString index="453">
            15 16 vvcurveto
            34 420 callgsubr
            return
          </CharString>
          <CharString index="454">
            hlineto
            11 7 4 8 return
          </CharString>
          <CharString index="455">
            -1 callgsubr
            4 16 20 vvcurveto
            return
          </CharString>
          <CharString index="456">
            -10 rmoveto
            30 12 8 28 vhcurveto
            15 hlineto
            29 11 -8 -30 hvcurveto
            -36 vlineto
            -30 -11 -8 -29 vhcurveto
            -15 hlineto
            -28 -12 8 30 hvcurveto
            return
          </CharString>
          <CharString index="457">
            603 callsubr
            -4 5 -12 vhcurveto
            return
          </CharString>
          <CharString index="458">
            451 callgsubr
            -3 4 hvcurveto
            return
          </CharString>
          <CharString index="459">
            372 callgsubr
            37 vlineto
            9 return
          </CharString>
          <CharString index="460">
            hlineto
            54 40 20 34 18 hvcurveto
            4 return
          </CharString>
          <CharString index="461">
            121 callsubr
            225 callgsubr
            return
          </CharString>
          <CharString index="462">
            10 -5 3 -8 vhcurveto
            -51 268 callgsubr
            -119 314 callsubr
            8 386 callsubr
            return
          </CharString>
          <CharString index="463">
            436 callgsubr
            5 hvcurveto
            78 105 rlineto
            9 6 return
          </CharString>
          <CharString index="464">
            -101 callgsubr
            -117 195 callsubr
            -306 209 callgsubr
            return
          </CharString>
          <CharString index="465">
            -3 -1 -5 -6 hvcurveto
            -14 -11 rlineto
            -6 -5 -3 -4 -6 vvcurveto
            -5 return
          </CharString>
          <CharString index="466">
            244 rmoveto
            -63 -38 -52 -77 vhcurveto
            -41 hlineto
            -71 -35 29 73 hvcurveto
            return
          </CharString>
          <CharString index="467">
            268 402 callgsubr
            return
          </CharString>
          <CharString index="468">
            -30 -16 -13 -34 -41 vvcurveto
            -38 vlineto
            -94 56 -54 return
          </CharString>
          <CharString index="469">
            hlineto
            59 25 128 callsubr
            6 -4 return
          </CharString>
          <CharString index="470">
            -4 -9 -4 518 callgsubr
            -5 return
          </CharString>
          <CharString index="471">
            -98 hlineto
            -11 5 -14 callsubr
            return
          </CharString>
          <CharString index="472">
            hlineto
            56 568 callsubr
            return
          </CharString>
          <CharString index="473">
            4 10 hvcurveto
            102 vlineto
            10 return
          </CharString>
          <CharString index="474">
            24 -14 -28 12 -41 hhcurveto
            return
          </CharString>
          <CharString index="475">
            -5 -5 -13 hvcurveto
            -7 vlineto
            return
          </CharString>
          <CharString index="476">
            hlineto
            46 35 15 29 return
          </CharString>
          <CharString index="477">
            11 3 4 9 hvcurveto
            return
          </CharString>
          <CharString index="478">
            -74 -32 40 66 hvcurveto
            return
          </CharString>
          <CharString index="479">
            -6 3 -10 hhcurveto
            return
          </CharString>
          <CharString index="480">
            vlineto
            -67 callgsubr
            return
          </CharString>
          <CharString index="481">
            494 callgsubr
            -15 20 50 hvcurveto
            65 vlineto
            51 15 19 51 vhcurveto
            return
          </CharString>
          <CharString index="482">
            87 206 378 rmoveto
            -40 25 -28 31 53 vvcurveto
            59 23 19 54 53 22 -19 -59 -44 -17 -38 -52 -36 vhcurveto
            return
          </CharString>
          <CharString index="483">
            22 -24 -54 hvcurveto
            return
          </CharString>
          <CharString index="484">
            285 callsubr
            -66 -39 -42 -60 -25 5 -31 12 -22 hvcurveto
            -8 return
          </CharString>
          <CharString index="485">
            35 345 hmoveto
            92 56 265 callsubr
            -56 55 -92 vhcurveto
            -246 hlineto
            8 callgsubr
            hvcurveto
            return
          </CharString>
          <CharString index="486">
            70 rmoveto
            15 callgsubr
            return
          </CharString>
          <CharString index="487">
            266 callsubr
            365 hlineto
            12 289 callgsubr
            return
          </CharString>
          <CharString index="488">
            rmoveto
            -58 -28 32 callsubr
            7 vhcurveto
            return
          </CharString>
          <CharString index="489">
            414 callsubr
            7 vhcurveto
            183 -20 callsubr
            return
          </CharString>
          <CharString index="490">
            rmoveto
            34 hlineto
            10 175 callsubr
            return
          </CharString>
          <CharString index="491">
            -55 -28 -19 -39 vhcurveto
            return
          </CharString>
          <CharString index="492">
            66 35 22 50 vhcurveto
            return
          </CharString>
          <CharString index="493">
            5 4 10 hvcurveto
            return
          </CharString>
          <CharString index="494">
            rmoveto
            -75 -38 41 69 hvcurveto
            69 16 vlineto
            84 2 49 36 89 vvcurveto
            18 vlineto
            40 -14 18 callgsubr
            return
          </CharString>
          <CharString index="495">
            154 callsubr
            -49 17 -31 43 -15 vhcurveto
            -4 vlineto
            195 callgsubr
            return
          </CharString>
          <CharString index="496">
            rmoveto
            -11 5 -4 11 vhcurveto
            37 hlineto
            9 6 112 callgsubr
            51 51 19 -21 -51 vhcurveto
            return
          </CharString>
          <CharString index="497">
            299 callsubr
            153 hlineto
            7 3 -4 return
          </CharString>
          <CharString index="498">
            3 -8 vhcurveto
            -43 268 callgsubr
            return
          </CharString>
          <CharString index="499">
            264 callsubr
            -45 hlineto
            -8 return
          </CharString>
          <CharString index="500">
            hlineto
            -47 -25 20 48 hvcurveto
            return
          </CharString>
          <CharString index="501">
            605 callsubr
            -7 hvcurveto
            return
          </CharString>
          <CharString index="502">
            hlineto
            14 12 3 0 hvcurveto
            return
          </CharString>
          <CharString index="503">
            vlineto
            14 -6 6 -11 vhcurveto
            return
          </CharString>
          <CharString index="504">
            5 7 -4 hvcurveto
            endchar
          </CharString>
          <CharString index="505">
            -142 227 506 callgsubr
            -31 122 callsubr
            return
          </CharString>
          <CharString index="506">
            vvcurveto
            -89 vlineto
            -94 58 -55 92 vhcurveto
            35 hlineto
            46 35 296 callsubr
            return
          </CharString>
          <CharString index="507">
            -30 callsubr
            -78 -27 callgsubr
            -43 vlineto
            return
          </CharString>
          <CharString index="508">
            268 callgsubr
            -212 vlineto
            -10 5 -2 5 return
          </CharString>
          <CharString index="509">
            -9 hvcurveto
            -30 474 callsubr
            return
          </CharString>
          <CharString index="510">
            -101 callgsubr
            -79 129 callgsubr
            return
          </CharString>
          <CharString index="511">
            rmoveto
            -99 callsubr
            return
          </CharString>
          <CharString index="512">
            157 callgsubr
            408 callgsubr
            return
          </CharString>
          <CharString index="513">
            11 1 5 4 11 vvcurveto
            577 callsubr
            return
          </CharString>
          <CharString index="514" raw="1">
            f83f0a53 b00b  
          </CharString>
          <CharString index="515">
            54 427 callsubr
            return
          </CharString>
          <CharString index="516">
            vlineto
            50 19 21 return
          </CharString>
          <CharString index="517">
            161 callsubr
            587 callgsubr
            -101 vlineto
            return
          </CharString>
          <CharString index="518">
            vlineto
            -52 -24 -14 -41 vhcurveto
            -54 564 callsubr
            -48 vlineto
            -95 57 -56 605 callgsubr
            return
          </CharString>
          <CharString index="519">
            -144 73 callsubr
            return
          </CharString>
          <CharString index="520">
            281 callsubr
            endchar
          </CharString>
          <CharString index="521">
            vlineto
            -24 callgsubr
            return
          </CharString>
          <CharString index="522">
            -5 5 -9 vhcurveto
            return
          </CharString>
          <CharString index="523">
            -44 callsubr
            -44 return
          </CharString>
          <CharString index="524">
            -101 callgsubr
            -300 vlineto
            -60 -34 -34 -59 vhcurveto
            -67 hlineto
            -59 -31 31 59 hvcurveto
            return
          </CharString>
          <CharString index="525">
            vhcurveto
            44 484 callgsubr
            -56 -56 -94 return
          </CharString>
          <CharString index="526">
            149 callgsubr
            120 414 callsubr
            return
          </CharString>
          <CharString index="527">
            8 582 callgsubr
            6 hvcurveto
            4 4 return
          </CharString>
          <CharString index="528">
            vvcurveto
            39 597 callsubr
            return
          </CharString>
          <CharString index="529">
            415 callsubr
            -35 hlineto
            -11 -5 -5 return
          </CharString>
          <CharString index="530">
            226 264 callsubr
            return
          </CharString>
          <CharString index="531">
            228 callsubr
            -48 vlineto
            -10 5 -5 return
          </CharString>
          <CharString index="532">
            511 callgsubr
            6 4 6 return
          </CharString>
          <CharString index="533">
            vhcurveto
            44 226 callsubr
            return
          </CharString>
          <CharString index="534">
            42 606 callgsubr
            83 return
          </CharString>
          <CharString index="535">
            vlineto
            -10 4 -5 12 vhcurveto
            return
          </CharString>
          <CharString index="536">
            rmoveto
            10 -5 3 -8 vhcurveto
            return
          </CharString>
          <CharString index="537">
            hlineto
            -9 223 callgsubr
            return
          </CharString>
          <CharString index="538">
            hvcurveto
            216 callsubr
            return
          </CharString>
          <CharString index="539">
            -4 hlineto
            -30 -16 -13 -34 return
          </CharString>
          <CharString index="540">
            -13 -9 -23 -35 vvcurveto
            return
          </CharString>
          <CharString index="541">
            3 5 9 hvcurveto
            return
          </CharString>
          <CharString index="542">
            24 -14 -28 495 callsubr
            -58 hhcurveto
            return
          </CharString>
          <CharString index="543">
            496 callsubr
            10 5 5 11 hvcurveto
            return
          </CharString>
          <CharString index="544">
            478 callgsubr
            5 7 -4 7 hhcurveto
            34 hlineto
            8 3 397 callgsubr
          </CharString>
          <CharString index="545">
            rlineto
            -3 -4 -2 return
          </CharString>
          <CharString index="546">
            -35 20 67 hvcurveto
            return
          </CharString>
          <CharString index="547">
            hvcurveto
            -4 vlineto
            0 -40 -31 -50 -53 vhcurveto
            -80 -86 244 callgsubr
            -3 vvcurveto
            -6 return
          </CharString>
          <CharString index="548">
            497 callsubr
            -321 vlineto
            -62 return
          </CharString>
          <CharString index="549">
            508 callsubr
            93 vhcurveto
            44 -51 callsubr
            10 -5 return
          </CharString>
          <CharString index="550" raw="1">
            2a06490a 0b  
          </CharString>
          <CharString index="551">
            -8 36 hhcurveto
            59 hlineto
            81 426 callgsubr
            -81 vhcurveto
            -67 hlineto
            return
          </CharString>
          <CharString index="552">
            473 510 callgsubr
            -124 hlineto
            return
          </CharString>
          <CharString index="553">
            -5 8 426 callsubr
            return
          </CharString>
          <CharString index="554">
            rlineto
            -18 -16 9 -26 24 hhcurveto
            16 hlineto
            39 12 return
          </CharString>
          <CharString index="555">
            hlineto
            8 1 397 callsubr
          </CharString>
          <CharString index="556">
            157 callgsubr
            -97 hlineto
            return
          </CharString>
          <CharString index="557">
            6 320 callgsubr
            return
          </CharString>
          <CharString index="558">
            9 386 callsubr
            return
          </CharString>
          <CharString index="559">
            6 3 3 8 vhcurveto
            return
          </CharString>
          <CharString index="560">
            hlineto
            -9 -5 -5 return
          </CharString>
          <CharString index="561">
            vlineto
            -9 -1 -8 return
          </CharString>
          <CharString index="562">
            rmoveto
            112 callsubr
            5 112 callgsubr
            return
          </CharString>
          <CharString index="563">
            211 487 callsubr
            return
          </CharString>
          <CharString index="564">
            hhcurveto
            34 448 callsubr
          </CharString>
          <CharString index="565">
            15 16 559 callgsubr
            return
          </CharString>
          <CharString index="566">
            587 callsubr
            -134 hlineto
            return
          </CharString>
          <CharString index="567">
            569 callgsubr
            19 23 44 vhcurveto
            return
          </CharString>
          <CharString index="568">
            -3 449 callgsubr
            return
          </CharString>
          <CharString index="569">
            hlineto
            451 callsubr
            return
          </CharString>
          <CharString index="570">
            -7 -4 2 7 -1 hvcurveto
            return
          </CharString>
          <CharString index="571">
            547 callsubr
            -89 vlineto
            return
          </CharString>
          <CharString index="572">
            vlineto
            -46 callgsubr
            return
          </CharString>
          <CharString index="573">
            vlineto
            66 31 22 50 vhcurveto
            return
          </CharString>
          <CharString index="574">
            -51 -42 -72 vhcurveto
            return
          </CharString>
          <CharString index="575">
            20 17 38 vhcurveto
            return
          </CharString>
          <CharString index="576">
            509 callgsubr
            -4 3 -7 vhcurveto
            -27 hlineto
            -7 -4 -3 -8 hvcurveto
            return
          </CharString>
          <CharString index="577">
            -107 callgsubr
            314 hlineto
            7 3 return
          </CharString>
          <CharString index="578">
            15 2 14 5 11 vhcurveto
            197 -195 rlineto
            -21 -13 -24 -10 -32 hhcurveto
            return
          </CharString>
          <CharString index="579">
            5 -9 vhcurveto
            -30 hlineto
            -11 -6 274 callgsubr
            return
          </CharString>
          <CharString index="580">
            -89 hlineto
            -56 -26 24 57 hvcurveto
            33 vlineto
            46 24 24 45 vhcurveto
            62 hlineto
            11 return
          </CharString>
          <CharString index="581">
            -49 callsubr
            36 hlineto
            44 20 return
          </CharString>
          <CharString index="582">
            15 -4 15 16 131 callsubr
            return
          </CharString>
          <CharString index="583">
            502 callgsubr
            -9 return
          </CharString>
          <CharString index="584">
            -94 57 -55 93 vhcurveto
            return
          </CharString>
          <CharString index="585">
            215 64 rmoveto
            -56 return
          </CharString>
          <CharString index="586">
            rlineto
            -3 -3 -2 return
          </CharString>
          <CharString index="587">
            5 -5 8 vhcurveto
            return
          </CharString>
          <CharString index="588">
            9 vhcurveto
            42 hlineto
            return
          </CharString>
          <CharString index="589">
            312 callsubr
            145 vlineto
            7 3 -4 -7 hvcurveto
            return
          </CharString>
          <CharString index="590">
            403 callsubr
            -112 hlineto
            return
          </CharString>
          <CharString index="591">
            362 rmoveto
            11 1 4 5 10 vvcurveto
            33 184 callgsubr
            return
          </CharString>
          <CharString index="592">
            419 callgsubr
            8 hhcurveto
            33 hlineto
            return
          </CharString>
          <CharString index="593">
            vlineto
            29 -41 128 -216 rlineto
            -6 4 5 -5 8 hhcurveto
            43 hlineto
            return
          </CharString>
          <CharString index="594">
            142 95 callgsubr
            return
          </CharString>
          <CharString index="595">
            179 callgsubr
            endchar
          </CharString>
          <CharString index="596">
            6 498 callsubr
          </CharString>
          <CharString index="597">
            vlineto
            -103 55 -46 return
          </CharString>
          <CharString index="598">
            vlineto
            -11 5 -5 return
          </CharString>
          <CharString index="599">
            229 rmoveto
            15 callgsubr
            return
          </CharString>
          <CharString index="600">
            39 16 22 36 56 vvcurveto
            43 vlineto
            40 -14 31 -28 14 vhcurveto
            4 return
          </CharString>
          <CharString index="601">
            64 95 callsubr
            return
          </CharString>
          <CharString index="602">
            12 -41 hhcurveto
            -56 -35 520 callgsubr
            -4 hlineto
            468 callgsubr
            return
          </CharString>
          <CharString index="603">
            296 callsubr
            10 vhcurveto
            38 hlineto
            return
          </CharString>
          <CharString index="604">
            463 callgsubr
            463 45 rmoveto
            243 callsubr
            return
          </CharString>
          <CharString index="605">
            151 callgsubr
            -8 hhcurveto
            endchar
          </CharString>
          <CharString index="606">
            rmoveto
            157 callgsubr
            -174 hlineto
            return
          </CharString>
          <CharString index="607">
            5 -14 callsubr
            39 hlineto
            9 6 4 return
          </CharString>
          <CharString index="608">
            836 rmoveto
            -10 -7 -4 -9 -5 hvcurveto
            return
          </CharString>
          <CharString index="609">
            hlineto
            -67 -38 -42 439 callgsubr
            7 return
          </CharString>
          <CharString index="610">
            17 vlineto
            84 48 39 88 hvcurveto
            return
          </CharString>
          <CharString index="611">
            vhcurveto
            44 hlineto
            10 6 4 6 return
          </CharString>
          <CharString index="612">
            14 509 callsubr
            return
          </CharString>
          <CharString index="613">
            32 19 44 hvcurveto
            14 vlineto
            47 return
          </CharString>
          <CharString index="614">
            hhcurveto
            -87 -57 -49 -101 hvcurveto
            return
          </CharString>
          <CharString index="615">
            -110 vlineto
            -100 56 -49 return
          </CharString>
          <CharString index="616">
            rmoveto
            -22 callgsubr
            return
          </CharString>
          <CharString index="617">
            9 vhcurveto
            45 hlineto
            9 5 return
          </CharString>
          <CharString index="618" raw="1">
            91801e7f 06560b  
          </CharString>
          <CharString index="619">
            28 60 hvcurveto
            32 vlineto
            59 return
          </CharString>
          <CharString index="620">
            -2 5 5 4 2 5 return
          </CharString>
          <CharString index="621">
            vlineto
            -55 -27 -24 -56 vhcurveto
            return
          </CharString>
          <CharString index="622">
            vlineto
            542 callsubr
            return
          </CharString>
          <CharString index="623">
            -90 300 callgsubr
            return
          </CharString>
          <CharString index="624">
            479 callsubr
            -4 return
          </CharString>
          <CharString index="625">
            -4 7 hhcurveto
            33 hlineto
            return
          </CharString>
          <CharString index="626">
            -37 hlineto
            -9 -6 -4 return
          </CharString>
          <CharString index="627">
            rmoveto
            -61 -32 34 58 hvcurveto
            198 vlineto
            58 32 34 61 vhcurveto
            return
          </CharString>
          <CharString index="628">
            34 310 callgsubr
            return
          </CharString>
          <CharString index="629">
            103 callgsubr
            -174 hlineto
            -66 -38 -42 -64 -9 1 return
          </CharString>
          <CharString index="630">
            hlineto
            -91 -56 -55 -92 hvcurveto
            -349 vlineto
            -92 56 -55 91 vhcurveto
            return
          </CharString>
          <CharString index="631">
            421 callsubr
            -7 hvcurveto
            return
          </CharString>
          <CharString index="632">
            vvcurveto
            39 555 callgsubr
            return
          </CharString>
          <CharString index="633">
            80 rlineto
            10 22 return
          </CharString>
          <CharString index="634">
            31 31 56 vhcurveto
            return
          </CharString>
          <CharString index="635">
            hlineto
            9 175 callgsubr
            return
          </CharString>
          <CharString index="636">
            506 callsubr
            -28 17 -49 vhcurveto
            4 vlineto
            return
          </CharString>
          <CharString index="637">
            rmoveto
            555 callsubr
            return
          </CharString>
          <CharString index="638">
            -48 -32 -85 -54 21 -32 37 -14 hvcurveto
            -4 vlineto
            -37 -16 return
          </CharString>
          <CharString index="639">
            hlineto
            -49 -17 273 callsubr
            return
          </CharString>
          <CharString index="640">
            rmoveto
            579 callgsubr
            10 -4 4 -12 vhcurveto
            return
          </CharString>
          <CharString index="641">
            -11 callgsubr
            -160 464 callgsubr
            return
          </CharString>
          <CharString index="642">
            vlineto
            12 -5 4 -10 vhcurveto
            -34 hlineto
            -11 -4 -4 -12 hvcurveto
            return
          </CharString>
          <CharString index="643">
            -2 7 457 callsubr
          </CharString>
          <CharString index="644">
            vhcurveto
            37 -13 callgsubr
            return
          </CharString>
          <CharString index="645">
            4 3 5 3 vhcurveto
            33 80 rlineto
            return
          </CharString>
          <CharString index="646">
            -32 -51 vhcurveto
            -57 vlineto
            -94 61 -73 return
          </CharString>
          <CharString index="647">
            hvcurveto
            -32 -6 callsubr
            return
          </CharString>
          <CharString index="648">
            184 callgsubr
            -61 hlineto
            return
          </CharString>
          <CharString index="649">
            -10 5 -4 9 vhcurveto
            return
          </CharString>
          <CharString index="650">
            hhcurveto
            -77 hlineto
            -11 -4 return
          </CharString>
          <CharString index="651">
            605 callgsubr
            92 return
          </CharString>
          <CharString index="652">
            -32 85 vhcurveto
            91 hlineto
            return
          </CharString>
          <CharString index="653">
            vhcurveto
            157 hlineto
            return
          </CharString>
          <CharString index="654">
            -56 -94 -1 hvcurveto
            return
          </CharString>
          <CharString index="655">
            -26 13 vhcurveto
            4 return
          </CharString>
          <CharString index="656">
            -3 -4 -9 hvcurveto
            return
          </CharString>
          <CharString index="657">
            vhcurveto
            38 hlineto
            11 return
          </CharString>
          <CharString index="658">
            rmoveto
            361 callsubr
            return
          </CharString>
          <CharString index="659">
            591 callsubr
            94 -54 return
          </CharString>
          <CharString index="660">
            hlineto
            -8 -4 264 callgsubr
            return
          </CharString>
          <CharString index="661">
            367 callsubr
            -56 -35 520 callgsubr
            return
          </CharString>
          <CharString index="662">
            12 4 5 10 hvcurveto
            32 -15 callsubr
            return
          </CharString>
          <CharString index="663">
            vlineto
            62 -34 43 -50 10 vhcurveto
            4 vlineto
            28 13 10 return
          </CharString>
          <CharString index="664">
            131 callgsubr
            -101 vhcurveto
            endchar
          </CharString>
          <CharString index="665">
            hmoveto
            244 callsubr
            return
          </CharString>
          <CharString index="666">
            hlineto
            46 20 -14 -46 hvcurveto
            return
          </CharString>
          <CharString index="667">
            -34 585 callgsubr
            return
          </CharString>
          <CharString index="668">
            -3 2 -4 hvcurveto
            59 -87 return
          </CharString>
          <CharString index="669">
            hvcurveto
            -4 127 hlineto
            6 return
          </CharString>
          <CharString index="670">
            hlineto
            -56 -28 31 56 hvcurveto
            return
          </CharString>
          <CharString index="671">
            hlineto
            -93 -57 -57 -94 hvcurveto
            return
          </CharString>
          <CharString index="672">
            105 rlineto
            8 6 -4 6 return
          </CharString>
          <CharString index="673">
            vlineto
            91 54 42 95 hvcurveto
            return
          </CharString>
          <CharString index="674">
            -3 hvcurveto
            -187 return
          </CharString>
          <CharString index="675">
            28 -31 -56 hvcurveto
            return
          </CharString>
          <CharString index="676">
            vhcurveto
            -117 hlineto
            return
          </CharString>
          <CharString index="677">
            -17 vhcurveto
            -4 vlineto
            return
          </CharString>
          <CharString index="678">
            -220 rlineto
            -6 4 4 -5 9 hhcurveto
            43 hlineto
            return
          </CharString>
          <CharString index="679">
            20 67 hvcurveto
            124 287 callgsubr
            return
          </CharString>
          <CharString index="680">
            3 8 hvcurveto
            214 414 callsubr
            7 vhcurveto
            return
          </CharString>
          <CharString index="681" raw="1">
            064065b4 d01fd09c 07dfbb0b 
          </CharString>
          <CharString index="682">
            vhcurveto
            -56 hlineto
            -12 -4 -75 callsubr
            -114 vlineto
            return
          </CharString>
          <CharString index="683">
            hlineto
            6 423 callgsubr
            return
          </CharString>
          <CharString index="684">
            29 139 callgsubr
            return
          </CharString>
          <CharString index="685">
            hlineto
            7 450 callsubr
            return
          </CharString>
          <CharString index="686">
            -46 560 callsubr
            return
          </CharString>
          <CharString index="687">
            5 514 callgsubr
            return
          </CharString>
          <CharString index="688">
            rrcurveto
            4 -112 hlineto
            -11 5 return
          </CharString>
          <CharString index="689">
            -97 hlineto
            -12 5 -14 callsubr
            return
          </CharString>
          <CharString index="690">
            4 2 6 3 hvcurveto
            47 88 return
          </CharString>
          <CharString index="691">
            24 vvcurveto
            98 vlineto
            7 return
          </CharString>
          <CharString index="692">
            -10 vhcurveto
            -35 hlineto
            -9 return
          </CharString>
          <CharString index="693">
            -34 -17 -28 -13 hvcurveto
            return
          </CharString>
          <CharString index="694">
            -7 -3 -4 -8 vhcurveto
            return
          </CharString>
          <CharString index="695">
            vlineto
            0 vlineto
            0 vlineto
            return
          </CharString>
          <CharString index="696">
            92 vhcurveto
            52 hlineto
            return
          </CharString>
          <CharString index="697">
            52 -48 88 vhcurveto
            return
          </CharString>
          <CharString index="698">
            275 callsubr
            -23 hlineto
            return
          </CharString>
          <CharString index="699" raw="1">
            5d0ab306 0b  
          </CharString>
          <CharString index="700">
            -411 rmoveto
            -60 -30 211 callgsubr
            return
          </CharString>
          <CharString index="701">
            hlineto
            -11 6 -4 9 vhcurveto
            38 hlineto
            10 5 return
          </CharString>
          <CharString index="702">
            -7 -4 -9 -5 518 callgsubr
            -5 return
          </CharString>
          <CharString index="703">
            -3 2 -4 hhcurveto
            -6 -4 -5 -6 -6 hvcurveto
            return
          </CharString>
          <CharString index="704">
            468 callsubr
            153 hlineto
            8 2 -4 return
          </CharString>
          <CharString index="705">
            -15 -17 -24 -39 vvcurveto
            -19 vlineto
            -77 47 -31 return
          </CharString>
          <CharString index="706">
            -42 callgsubr
            -234 vlineto
            return
          </CharString>
          <CharString index="707">
            hlineto
            425 callgsubr
            return
          </CharString>
          <CharString index="708">
            vlineto
            -7 -3 -3 return
          </CharString>
          <CharString index="709">
            27 -26 13 vhcurveto
            return
          </CharString>
          <CharString index="710">
            608 rmoveto
            10 return
          </CharString>
          <CharString index="711">
            hvcurveto
            7 vlineto
            14 return
          </CharString>
          <CharString index="712">
            hlineto
            8 3 -3 return
          </CharString>
          <CharString index="713">
            5 -4 9 hhcurveto
            return
          </CharString>
        <CharString name=".notdef">
          259 171 hmoveto
          410 701 -410 hlineto
          66 -61 rmoveto
          279 -579 -279 hlineto
          endchar
        </CharString>
        <CharString name="A">
          46 -74 callsubr
          endchar
        </CharString>
        <CharString name="AE">
          281 371 570 rmoveto
          4 -344 -186 hlineto
          -126 -226 rmoveto
          9 4 3 11 5 hvcurveto
          78 147 rlineto
          216 -147 hlineto
          -11 4 -3 9 vhcurveto
          315 hlineto
          10 3 85 callgsubr
          -3 5 -10 vhcurveto
          -245 hlineto
          -8 -3 3 6 hvcurveto
          213 vlineto
          452 callsubr
          213 hlineto
          11 4 5 9 hvcurveto
          36 183 callsubr
          -213 hlineto
          -8 -3 3 6 hvcurveto
          202 vlineto
          452 callsubr
          245 hlineto
          10 3 85 callgsubr
          -3 5 -10 vhcurveto
          -356 hlineto
          -11 -6 -3 -11 -6 hvcurveto
          -320 -614 rlineto
          -10 -5 3 -5 10 hhcurveto
          endchar
        </CharString>
        <CharString name="Aacute">
          45 -74 callsubr
          291 836 rmoveto
          -9 -8 -4 -9 -4 hvcurveto
          -58 211 callsubr
        </CharString>
        <CharString name="Abreve">
          45 -74 callsubr
          128 825 rmoveto
          -12 vlineto
          -72 33 -34 62 vhcurveto
          18 hlineto
          62 34 301 callgsubr
          -4 3 -7 vhcurveto
          -27 hlineto
          -7 -4 -3 -8 hvcurveto
          endchar
        </CharString>
        <CharString name="Acircumflex">
          45 -74 callsubr
          270 826 rmoveto
          7 -5 -5 3 -10 159 callsubr
          34 hlineto
          7 4 2 6 2 hvcurveto
          48 238 callsubr
          2 397 callsubr
        </CharString>
        <CharString name="Adieresis">
          45 -74 callsubr
          284 721 136 callgsubr
          -171 -101 136 callgsubr
          endchar
        </CharString>
        <CharString name="Agrave">
          45 -74 callsubr
          194 823 rmoveto
          9 -4 -8 4 -9 hhcurveto
          -60 hlineto
          -9 189 callsubr
          9 2 397 callgsubr
        </CharString>
        <CharString name="Amacron">
          45 -74 callsubr
          333 746 600 callgsubr
          5 -11 229 callgsubr
        </CharString>
        <CharString name="Aogonek">
          45 165 222 rmoveto
          103 346 rlineto
          4 hlineto
          103 -346 rlineto
          -50 407 rmoveto
          11 -3 372 callsubr
          -72 547 callgsubr
          -11 567 callsubr
          -615 rlineto
          -10 -3 3 -4 9 hhcurveto
          50 hlineto
          9 3 3 11 3 hvcurveto
          47 146 rlineto
          242 hlineto
          45 -141 -61 -86 rlineto
          -21 -15 8 -23 34 hhcurveto
          37 43 11 19 11 -5 3 -21 hvcurveto
          -39 hlineto
          48 67 rlineto
          38 hlineto
          9 3 4 10 -3 hvcurveto
          endchar
        </CharString>
        <CharString name="Aring">
          45 -74 callsubr
          225 730 rmoveto
          -27 -13 14 29 hvcurveto
          23 vlineto
          29 13 14 27 vhcurveto
          13 hlineto
          27 12 -14 -29 hvcurveto
          -23 vlineto
          -29 -12 -14 -28 vhcurveto
          10 -33 rmoveto
          42 25 25 43 hvcurveto
          41 vlineto
          42 -25 24 -42 vhcurveto
          -31 hlineto
          -43 -23 -24 -42 hvcurveto
          -41 vlineto
          -43 23 -25 43 vhcurveto
          endchar
        </CharString>
        <CharString name="Atilde">
          45 -74 callsubr
          246 753 324 callsubr
          6 vhcurveto
          22 hlineto
          6 3 3 8 hvcurveto
          39 vlineto
          49 -14 29 -50 -27 291 callgsubr
          50 25 17 7 44 18 vhcurveto
          endchar
        </CharString>
        <CharString name="B">
          55 79 505 callsubr
          242 hlineto
          92 56 53 93 hvcurveto
          67 vlineto
          70 -45 40 -47 4 vhcurveto
          49 15 35 35 65 vvcurveto
          55 vlineto
          93 -56 53 -91 vhcurveto
          -235 584 callgsubr
          -271 rmoveto
          -7 -3 3 6 hvcurveto
          204 430 callgsubr
          157 hlineto
          56 29 -29 -56 hvcurveto
          -53 vlineto
          -56 -31 -29 -57 vhcurveto
          -154 -296 rmoveto
          -7 -3 3 7 hvcurveto
          216 5 callsubr
          158 hlineto
          63 29 -28 -57 hvcurveto
          -65 vlineto
          -56 -29 -29 -57 vhcurveto
          endchar
        </CharString>
        <CharString name="C">
          47 337 hmoveto
          36 callgsubr
        </CharString>
        <CharString name="CR">
          -240 endchar
        </CharString>
        <CharString name="Cacute">
          47 323 501 callsubr
          -57 -102 rlineto
          -9 -5 3 -5 8 hhcurveto
          33 hlineto
          7 8 313 callgsubr
          6 -4 6 -9 hhcurveto
          -46 -836 rmoveto
          36 callgsubr
        </CharString>
        <CharString name="Ccaron">
          47 295 707 rmoveto
          10 231 callgsubr
          -4 -2 -6 -3 hvcurveto
          -47 -88 -48 88 rlineto
          6 -2 -5 2 -7 305 callgsubr
          75 -707 rmoveto
          36 callgsubr
        </CharString>
        <CharString name="Ccedilla">
          47 471 432 rmoveto
          451 callsubr
          49 286 callsubr
          -120 hlineto
          -92 398 callgsubr
          -347 vlineto
          -93 56 -55 92 vhcurveto
          53 hlineto
          -40 -46 447 callsubr
          -6 -24 hvcurveto
          -3 vlineto
          -21 -12 -8 -39 306 callgsubr
          33 19 45 hvcurveto
          13 vlineto
          48 -28 17 -49 vhcurveto
          4 vlineto
          44 46 rlineto
          14 hlineto
          544 callgsubr
          49 248 callsubr
          -45 193 callsubr
          -46 366 callgsubr
          -103 147 callgsubr
          103 336 callgsubr
          -46 515 callsubr
          endchar
        </CharString>
        <CharString name="D">
          152 callgsubr
          endchar
        </CharString>
        <CharString name="Dcaron">
          152 callgsubr
          -72 643 rmoveto
          34 hlineto
          9 231 callgsubr
          -4 -2 -6 -3 hvcurveto
          -48 -88 -47 88 rlineto
          6 -3 -3 2 -8 305 callgsubr
          endchar
        </CharString>
        <CharString name="Dcroat">
          378 callsubr
          -224 464 callgsubr
          -37 hlineto
          -11 549 callsubr
          -30 vlineto
          -9 3 -4 11 vhcurveto
          37 hlineto
          8 2 -3 -7 hvcurveto
          -315 -13 callsubr
          69 64 rmoveto
          -7 -3 3 6 hvcurveto
          256 430 callgsubr
          126 hlineto
          370 callsubr
          30 336 callsubr
          -126 hlineto
          -7 -3 3 7 hvcurveto
          165 5 callsubr
          168 336 callgsubr
          -341 366 callgsubr
          endchar
        </CharString>
        <CharString name="E">
          -14 -77 callgsubr
          endchar
        </CharString>
        <CharString name="Eacute">
          -14 -77 callgsubr
          204 501 callsubr
          -57 -102 rlineto
          -9 -5 2 413 callsubr
        </CharString>
        <CharString name="Ecaron">
          -14 -77 callgsubr
          142 707 rmoveto
          35 hlineto
          9 231 callgsubr
          -4 -2 -6 -3 hvcurveto
          -47 -88 -48 88 rlineto
          6 -3 -4 2 -7 hhcurveto
          -33 hlineto
          -9 225 callgsubr
          endchar
        </CharString>
        <CharString name="Ecircumflex">
          -14 -77 callgsubr
          194 826 230 callgsubr
          8 1 5 7 -4 hvcurveto
          endchar
        </CharString>
        <CharString name="Edieresis">
          -14 -77 callgsubr
          208 721 171 callgsubr
        </CharString>
        <CharString name="Edotaccent">
          -2 -77 callgsubr
          120 725 rmoveto
          542 callsubr
          46 hlineto
          9 4 4 10 hvcurveto
          97 vlineto
          10 -5 4 -8 vhcurveto
          -46 193 callsubr
          endchar
        </CharString>
        <CharString name="Egrave">
          -14 -77 callgsubr
          128 823 rmoveto
          9 -4 -7 4 -10 hhcurveto
          -60 hlineto
          -9 189 callsubr
          9 2 397 callgsubr
        </CharString>
        <CharString name="Emacron">
          -14 -77 callgsubr
          257 746 600 callgsubr
          5 -11 229 callgsubr
        </CharString>
        <CharString name="Eogonek">
          -14 407 579 rmoveto
          16 callgsubr
          224 hlineto
          -48 411 callgsubr
          48 105 callgsubr
          -245 hlineto
          -7 -3 3 6 hvcurveto
          213 5 callsubr
          214 105 callgsubr
          -214 hlineto
          -7 -3 3 6 hvcurveto
          202 5 callsubr
          endchar
        </CharString>
        <CharString name="Eth">
          378 callsubr
          -267 vlineto
          -6 -2 -3 -8 vhcurveto
          -37 119 callsubr
          -30 vlineto
          -9 3 -4 11 vhcurveto
          37 hlineto
          8 2 -3 -7 hvcurveto
          -272 -13 callsubr
          69 64 rmoveto
          -7 -3 3 6 hvcurveto
          213 430 callgsubr
          126 hlineto
          370 callsubr
          30 156 callgsubr
          -126 hlineto
          -7 -3 3 6 hvcurveto
          208 5 callsubr
          168 336 callgsubr
          -341 366 callgsubr
          endchar
        </CharString>
        <CharString name="Euro">
          36 316 hmoveto
          91 57 53 93 hvcurveto
          25 248 callsubr
          -45 193 callsubr
          -24 vlineto
          -56 -28 -29 -56 vhcurveto
          -47 hlineto
          -56 -29 29 56 hvcurveto
          84 139 vlineto
          12 289 callgsubr
          23 -37 callgsubr
          -139 71 139 hlineto
          12 289 callgsubr
          23 -37 callgsubr
          -139 88 hlineto
          56 29 29 56 vhcurveto
          47 hlineto
          56 28 -29 -56 hvcurveto
          -24 vlineto
          552 callgsubr
          25 vlineto
          93 -57 53 -91 vhcurveto
          -65 hlineto
          -91 -57 -53 -93 hvcurveto
          -89 -55 vlineto
          479 callgsubr
          -23 266 callsubr
          55 -71 -55 hlineto
          479 callgsubr
          -23 266 callsubr
          55 -85 hlineto
          -93 57 -53 91 vhcurveto
          endchar
        </CharString>
        <CharString name="F">
          -37 138 106 callsubr
          255 430 callgsubr
          214 hlineto
          10 4 4 10 hvcurveto
          36 170 callgsubr
          -214 hlineto
          -7 -3 3 6 hvcurveto
          218 5 callsubr
          242 105 callgsubr
          -311 3 callgsubr
          endchar
        </CharString>
        <CharString name="G">
          9 callgsubr
          endchar
        </CharString>
        <CharString name="Gbreve">
          9 callgsubr
          -50 825 rmoveto
          -12 vlineto
          -72 33 -34 62 vhcurveto
          17 hlineto
          63 33 34 72 hvcurveto
          12 vlineto
          8 -3 2 -8 vhcurveto
          -26 hlineto
          -6 -4 539 callgsubr
          -39 vhcurveto
          -6 hlineto
          -38 -15 509 callgsubr
          -3 3 -7 vhcurveto
          -28 hlineto
          -7 -3 -3 -8 hvcurveto
          endchar
        </CharString>
        <CharString name="H">
          78 138 106 callsubr
          270 5 callsubr
          248 194 callgsubr
          -270 vlineto
          -11 5 -3 9 vhcurveto
          45 178 callsubr
          -45 hlineto
          8 callgsubr
          hvcurveto
          -263 vlineto
          -6 253 callgsubr
          -248 hlineto
          -7 -3 3 6 hvcurveto
          263 vlineto
          11 -5 3 -9 vhcurveto
          -45 3 callgsubr
          endchar
        </CharString>
        <CharString name="I">
          -253 157 629 rmoveto
          11 -5 3 -9 vhcurveto
          -45 3 callgsubr
          45 hlineto
          9 5 3 11 hvcurveto
          endchar
        </CharString>
        <CharString name="Iacute">
          -253 157 629 rmoveto
          11 -5 3 -9 vhcurveto
          -45 3 callgsubr
          45 hlineto
          9 5 3 11 hvcurveto
          19 822 rmoveto
          -9 332 callgsubr
          8 hhcurveto
          33 hlineto
          8 7 313 callgsubr
          7 -4 6 -9 hhcurveto
          endchar
        </CharString>
        <CharString name="Icircumflex">
          -254 157 629 rmoveto
          11 -5 3 -9 vhcurveto
          -45 3 callgsubr
          45 hlineto
          9 5 3 11 hvcurveto
          812 vmoveto
          7 -5 -6 3 -9 159 callsubr
          33 hlineto
          8 4 2 6 3 hvcurveto
          47 238 callsubr
          1 5 7 -4 hvcurveto
          endchar
        </CharString>
        <CharString name="Idieresis">
          -254 157 629 rmoveto
          11 -5 3 -9 vhcurveto
          -45 3 callgsubr
          45 hlineto
          9 5 3 11 hvcurveto
          14 707 171 callsubr
        </CharString>
        <CharString name="Idotaccent">
          -253 84 706 431 callgsubr
          46 462 callsubr
          94 vlineto
          10 -5 226 callgsubr
          -4 -10 hvcurveto
          73 -170 rmoveto
          11 -5 3 -9 vhcurveto
          -45 3 callgsubr
          45 hlineto
          9 5 3 11 hvcurveto
          endchar
        </CharString>
        <CharString name="Igrave">
          -253 157 629 rmoveto
          11 -5 3 -9 vhcurveto
          -45 3 callgsubr
          45 hlineto
          9 5 3 11 hvcurveto
          -71 809 301 callsubr
        </CharString>
        <CharString name="Imacron">
          -254 157 629 rmoveto
          11 -5 3 -9 vhcurveto
          -45 3 callgsubr
          45 hlineto
          9 5 3 11 hvcurveto
          64 732 rmoveto
          10 4 5 9 hvcurveto
          26 vlineto
          9 -4 5 -10 229 callgsubr
        </CharString>
        <CharString name="Iogonek">
          -253 98 643 rmoveto
          8 callgsubr
          hvcurveto
          -615 vlineto
          -9 4 -4 6 -1 vhcurveto
          -48 -67 rlineto
          -21 -16 8 -23 35 hhcurveto
          37 43 11 19 11 -5 3 -20 hvcurveto
          -40 hlineto
          49 67 rlineto
          6 178 callsubr
          endchar
        </CharString>
        <CharString name="J">
          11 373 643 rmoveto
          -10 212 callgsubr
          -478 155 callsubr
          -82 563 callsubr
          83 vlineto
          -76 callgsubr
          -86 vlineto
          -93 57 -55 91 vhcurveto
          100 hlineto
          244 callsubr
          482 526 callgsubr
          -9 vhcurveto
          endchar
        </CharString>
        <CharString name="K">
          107 callgsubr
          endchar
        </CharString>
        <CharString name="L">
          60 callgsubr
          endchar
        </CharString>
        <CharString name="Lacute">
          60 callgsubr
          79 836 rmoveto
          -10 -7 -4 -9 -5 hvcurveto
          -58 -102 rlineto
          -9 -5 3 413 callsubr
        </CharString>
        <CharString name="Lcaron">
          60 callgsubr
          278 630 429 callsubr
          -44 hlineto
          -8 143 callsubr
          endchar
        </CharString>
        <CharString name="Lslash">
          13 430 hmoveto
          219 callgsubr
          -252 hlineto
          -8 -2 3 6 hvcurveto
          315 vlineto
          95 54 rlineto
          10 5 4 6 9 vvcurveto
          38 vlineto
          9 -5 4 -9 -5 vhcurveto
          -95 -53 rlineto
          172 vlineto
          -76 callgsubr
          -214 vlineto
          -70 -40 rlineto
          -10 -5 -4 -6 -9 vvcurveto
          -37 vlineto
          -9 5 -4 9 5 vhcurveto
          70 40 rlineto
          -336 -13 callsubr
          endchar
        </CharString>
        <CharString name="M">
          211 355 221 rmoveto
          -5 hlineto
          -164 414 rlineto
          5 -2 -3 3 -7 hhcurveto
          -81 hlineto
          -8 -6 -3 -11 hvcurveto
          -615 vlineto
          -11 6 -3 8 vhcurveto
          44 hlineto
          10 3 3 11 hvcurveto
          532 4 vlineto
          158 -393 rlineto
          -9 3 4 -4 10 hhcurveto
          48 hlineto
          9 5 4 9 4 hvcurveto
          155 392 rlineto
          4 -531 hlineto
          -22 callgsubr
          44 178 callsubr
          -81 hlineto
          -7 -4 -3 -5 -1 hvcurveto
          endchar
        </CharString>
        <CharString name="N">
          -3 callgsubr
          endchar
        </CharString>
        <CharString name="NULL">
          -494 endchar
        </CharString>
        <CharString name="Nacute">
          -3 callgsubr
          257 836 rmoveto
          -9 595 callsubr
          2 -5 9 hhcurveto
          33 hlineto
          8 7 313 callgsubr
          6 -4 6 -9 hhcurveto
          endchar
        </CharString>
        <CharString name="Ncaron">
          87 277 707 rmoveto
          35 hlineto
          9 224 callsubr
          -35 hlineto
          -6 -5 318 callsubr
          -140 -707 rmoveto
          6 callgsubr
          endchar
        </CharString>
        <CharString name="Ntilde">
          -3 callgsubr
          211 753 324 callsubr
          6 vhcurveto
          21 hlineto
          7 3 3 8 hvcurveto
          39 vlineto
          49 -14 29 -49 -28 291 callgsubr
          49 26 17 7 44 18 vhcurveto
          endchar
        </CharString>
        <CharString name="O">
          -54 callgsubr
          endchar
        </CharString>
        <CharString name="OE">
          283 229 494 callsubr
          130 605 callsubr
          -6 hvcurveto
          -497 vlineto
          -6 -3 -3 -8 vhcurveto
          -286 84 rmoveto
          -93 56 -55 91 vhcurveto
          473 hlineto
          11 4 5 9 hvcurveto
          36 183 callsubr
          -241 hlineto
          -7 -3 3 6 hvcurveto
          213 5 callsubr
          210 hlineto
          11 3 5 9 hvcurveto
          36 156 callgsubr
          -210 hlineto
          -7 -3 3 6 hvcurveto
          202 5 callsubr
          241 hlineto
          11 4 5 9 hvcurveto
          36 183 callsubr
          -473 hlineto
          -91 398 callgsubr
          endchar
        </CharString>
        <CharString name="Oacute">
          -54 callgsubr
          -3 772 206 callsubr
          7 313 callgsubr
          6 -4 6 -8 hhcurveto
          endchar
        </CharString>
        <CharString name="Ocircumflex">
          -54 callgsubr
          -12 762 rmoveto
          7 -5 -6 3 -9 hhcurveto
          -35 hlineto
          -9 -6 -3 -7 -5 hvcurveto
          -63 -107 rlineto
          -7 -4 1 -5 8 347 callgsubr
          5 536 callsubr
        </CharString>
        <CharString name="Odieresis">
          -54 callgsubr
          657 vmoveto
          -10 4 -4 9 vhcurveto
          43 hlineto
          9 4 174 callgsubr
          -171 -101 rmoveto
          -10 4 -4 9 vhcurveto
          43 hlineto
          9 4 174 callgsubr
          endchar
        </CharString>
        <CharString name="Ograve">
          -54 callgsubr
          -83 759 476 callsubr
          -3 -6 -8 6 437 callsubr
        </CharString>
        <CharString name="Ohungarumlaut">
          -54 callgsubr
          70 772 rmoveto
          -10 -6 -3 -10 -6 hvcurveto
          -56 -102 rlineto
          -9 -5 2 360 callgsubr
          7 -5 5 -9 hhcurveto
          -172 hmoveto
          -10 -6 -3 -10 -6 hvcurveto
          -56 -102 rlineto
          -9 -5 2 511 callgsubr
          385 callgsubr
          77 105 rlineto
          9 6 -4 5 -9 hhcurveto
          endchar
        </CharString>
        <CharString name="Omacron">
          -54 callgsubr
          50 682 rmoveto
          10 4 5 9 538 callgsubr
          -202 hlineto
          -10 482 callgsubr
          -26 vlineto
          -9 4 -5 10 vhcurveto
          endchar
        </CharString>
        <CharString name="Oslash">
          71 419 151 rmoveto
          215 callgsubr
          -105 hlineto
          -38 -25 14 26 -12 hvcurveto
          264 368 rlineto
          -273 20 rmoveto
          56 27 31 57 vhcurveto
          105 hlineto
          37 25 -14 -26 13 hvcurveto
          -264 -368 rlineto
          352 466 rmoveto
          -8 6 -6 -1 -7 -9 -23 -32 rcurveline
          27 -25 -38 15 -47 hhcurveto
          -123 hlineto
          -92 398 callgsubr
          -347 vlineto
          -24 4 -21 7 -19 vhcurveto
          -34 -47 -6 -9 1 -7 7 -5 rlinecurve
          14 -11 8 -5 7 1 6 8 rlinecurve
          23 32 rlineto
          -26 26 38 -15 47 hhcurveto
          123 hlineto
          244 callsubr
          347 vlineto
          24 -4 21 -6 18 vhcurveto
          34 48 6 9 0 7 -8 5 rlinecurve
          endchar
        </CharString>
        <CharString name="Otilde">
          -54 callgsubr
          -38 689 324 callsubr
          7 vhcurveto
          21 hlineto
          6 2 3 8 hvcurveto
          39 vlineto
          49 -13 29 -49 -28 442 callgsubr
          -2 2 -7 vhcurveto
          -21 hlineto
          -6 -3 -2 -8 hvcurveto
          -39 vlineto
          -48 13 -29 50 25 18 7 44 17 vhcurveto
          endchar
        </CharString>
        <CharString name="P">
          32 162 301 rmoveto
          -7 -3 3 6 hvcurveto
          260 5 callsubr
          155 336 callgsubr
          -105 vlineto
          -56 -27 -30 -57 vhcurveto
          -179 -301 rmoveto
          23 callgsubr
          213 5 callsubr
          165 hlineto
          244 callsubr
          111 300 callsubr
          -91 vhcurveto
          -234 3 callgsubr
          endchar
        </CharString>
        <CharString name="Q">
          66 421 -133 rmoveto
          9 6 6 10 -6 hvcurveto
          -71 119 rlineto
          79 6 49 54 86 vvcurveto
          347 286 callsubr
          -119 hlineto
          -91 398 callgsubr
          -347 vlineto
          -93 56 -55 91 vhcurveto
          62 hlineto
          72 -119 rlineto
          -10 6 6 -4 14 hhcurveto
          -151 197 22 callsubr
          endchar
        </CharString>
        <CharString name="R">
          43 162 -53 callsubr
          endchar
        </CharString>
        <CharString name="Racute">
          43 162 -53 callsubr
          209 836 206 callsubr
          7 313 callgsubr
          6 -4 6 -8 hhcurveto
          endchar
        </CharString>
        <CharString name="Rcaron">
          43 162 -53 callsubr
          146 707 383 callsubr
          -2 5 -7 hhcurveto
          -35 76 callgsubr
          64 -107 rlineto
          -7 5 5 -3 10 hhcurveto
          endchar
        </CharString>
        <CharString name="S">
          61 72 148 -36 callgsubr
        </CharString>
        <CharString name="Sacute">
          61 321 836 rmoveto
          -10 -7 -4 -9 -5 hvcurveto
          -58 -102 rlineto
          -9 -5 3 281 callsubr
          -309 -688 -36 callgsubr
        </CharString>
        <CharString name="Scaron">
          61 292 707 rmoveto
          9 231 callgsubr
          -5 318 callsubr
          -185 -559 -36 callgsubr
        </CharString>
        <CharString name="T">
          27 callsubr
          endchar
        </CharString>
        <CharString name="Tcaron">
          27 callsubr
          7 707 225 callsubr
          -2 5 -8 hhcurveto
          -34 hlineto
          -7 -4 -2 -6 -3 hvcurveto
          -47 -88 -48 88 rlineto
          6 -2 -4 2 -8 305 callgsubr
          endchar
        </CharString>
        <CharString name="Thorn">
          8 164 hmoveto
          9 4 3 11 hvcurveto
          109 vlineto
          452 callsubr
          106 hlineto
          244 callsubr
          82 300 callsubr
          -91 vhcurveto
          -106 hlineto
          -8 -3 3 6 hvcurveto
          110 vlineto
          11 -4 3 -9 vhcurveto
          -46 hlineto
          -8 -5 -3 -11 hvcurveto
          -615 vlineto
          -11 5 -3 8 vhcurveto
          69 197 rmoveto
          -7 -3 3 6 hvcurveto
          231 5 callsubr
          97 336 callgsubr
          -76 vlineto
          -56 -27 -30 -57 vhcurveto
          endchar
        </CharString>
        <CharString name="U">
          -57 callsubr
          endchar
        </CharString>
        <CharString name="Uacute">
          -57 callsubr
          -138 193 rmoveto
          -10 -7 -4 -9 465 callgsubr
          -5 2 -5 9 hhcurveto
          33 hlineto
          7 8 4 6 4 hvcurveto
          88 565 callsubr
          -9 hhcurveto
          endchar
        </CharString>
        <CharString name="Ucircumflex">
          -57 callsubr
          -150 183 rmoveto
          7 -5 372 callsubr
          -34 hlineto
          -10 -5 -3 -7 -5 hvcurveto
          -64 -107 rlineto
          -7 -4 2 -5 9 hhcurveto
          33 hlineto
          7 583 callsubr
          48 -88 rlineto
          -6 3 3 -2 8 457 callsubr
        </CharString>
        <CharString name="Udieresis">
          -57 callsubr
          -138 78 170 callsubr
        </CharString>
        <CharString name="Ugrave">
          -57 callsubr
          -217 180 rmoveto
          9 -5 -7 4 -9 hhcurveto
          -61 hlineto
          -8 189 callsubr
          8 3 397 callgsubr
        </CharString>
        <CharString name="Uhungarumlaut">
          -57 callsubr
          -72 193 rmoveto
          -9 356 callsubr
          -5 5 -8 142 callsubr
        </CharString>
        <CharString name="Umacron">
          -57 callsubr
          -88 103 rmoveto
          10 4 5 9 hvcurveto
          26 vlineto
          9 -4 5 -10 229 callgsubr
        </CharString>
        <CharString name="Uogonek">
          60 421 643 rmoveto
          157 callsubr
          -478 155 callsubr
          -94 156 callsubr
          478 vlineto
          -76 callgsubr
          -481 vlineto
          -93 56 -55 589 callsubr
          -47 411 callgsubr
          16 hlineto
          244 callsubr
          482 526 callgsubr
          -10 vhcurveto
          endchar
        </CharString>
        <CharString name="Uring">
          -57 callsubr
          -196 87 rmoveto
          -27 -12 14 29 hvcurveto
          23 vlineto
          29 12 14 27 vhcurveto
          13 hlineto
          28 11 -14 -29 hvcurveto
          -23 vlineto
          -29 -11 -14 -28 vhcurveto
          9 -33 rmoveto
          42 26 25 43 hvcurveto
          41 vlineto
          42 -26 24 -42 vhcurveto
          -31 hlineto
          -42 -24 -24 -42 hvcurveto
          -41 vlineto
          -43 24 -25 42 vhcurveto
          endchar
        </CharString>
        <CharString name="V">
          12 289 hmoveto
          8 5 3 11 3 hvcurveto
          177 614 rlineto
          10 2 -4 5 -10 hhcurveto
          -50 hlineto
          8 callgsubr
          -2 hvcurveto
          -149 -547 rlineto
          -4 hlineto
          -149 547 rlineto
          11 -2 -4 3 -10 hhcurveto
          -49 hlineto
          -11 -4 -5 -10 2 hvcurveto
          177 -614 rlineto
          -11 3 5 -3 9 hhcurveto
          endchar
        </CharString>
        <CharString name="W">
          303 249 hmoveto
          8 6 4 10 2 hvcurveto
          132 537 rlineto
          4 hlineto
          131 -537 rlineto
          -9 2 6 -5 9 hhcurveto
          77 hlineto
          9 5 4 10 2 hvcurveto
          129 614 rlineto
          10 2 -5 5 -10 hhcurveto
          -54 hlineto
          -9 -6 -4 -11 -2 hvcurveto
          -100 -550 rlineto
          -6 hlineto
          -137 552 rlineto
          10 -2 -6 3 -8 hhcurveto
          -60 hlineto
          -7 -7 -3 -10 -2 hvcurveto
          -135 -552 rlineto
          -6 hlineto
          -101 551 rlineto
          11 -1 -6 3 -9 hhcurveto
          -54 hlineto
          -10 -5 -5 -9 2 hvcurveto
          128 -615 rlineto
          -11 2 6 -3 9 hhcurveto
          endchar
        </CharString>
        <CharString name="X">
          20 402 13 rmoveto
          -10 4 6 -3 9 hhcurveto
          53 hlineto
          9 4 7 8 -5 hvcurveto
          -174 322 167 291 rlineto
          8 4 -4 7 -9 hhcurveto
          -52 547 callgsubr
          -11 -6 hvcurveto
          -132 -246 rlineto
          -4 hlineto
          -134 246 rlineto
          11 -5 -8 3 -9 hhcurveto
          -50 hlineto
          -9 -5 -7 -8 5 hvcurveto
          166 -292 -175 -321 rlineto
          -8 -4 4 -7 9 hhcurveto
          52 hlineto
          9 6 3 10 5 hvcurveto
          142 268 rlineto
          4 hlineto
          endchar
        </CharString>
        <CharString name="Y">
          58 callgsubr
          endchar
        </CharString>
        <CharString name="Yacute">
          58 callgsubr
          74 836 rmoveto
          -9 144 callgsubr
          7 -5 6 -8 hhcurveto
          endchar
        </CharString>
        <CharString name="Ydieresis">
          58 callgsubr
          74 721 136 callgsubr
          -171 -101 136 callgsubr
          endchar
        </CharString>
        <CharString name="Z">
          -3 callsubr
          endchar
        </CharString>
        <CharString name="Zacute">
          -3 callsubr
          271 786 rmoveto
          -10 -7 -4 -9 -5 hvcurveto
          -58 -102 rlineto
          -9 -4 2 413 callsubr
        </CharString>
        <CharString name="Zcaron">
          -3 callsubr
          203 657 225 callsubr
          -1 5 -9 hhcurveto
          -34 76 callgsubr
          64 -107 rlineto
          -7 5 5 -3 10 hhcurveto
          endchar
        </CharString>
        <CharString name="Zdotaccent">
          -3 callsubr
          188 675 431 callgsubr
          46 hlineto
          9 4 4 10 hvcurveto
          97 vlineto
          10 -4 4 -9 vhcurveto
          -46 268 callgsubr
          endchar
        </CharString>
        <CharString name="a">
          13 -59 callgsubr
          endchar
        </CharString>
        <CharString name="aacute">
          13 -59 callgsubr
          109 703 rmoveto
          -10 -7 363 callsubr
          2 -5 9 hhcurveto
          32 hlineto
          8 7 151 callgsubr
          -9 hhcurveto
          endchar
        </CharString>
        <CharString name="abreve">
          13 167 680 rmoveto
          -72 33 -34 62 vhcurveto
          18 hlineto
          62 417 callgsubr
          -14 -19 -40 vhcurveto
          -5 hlineto
          -38 -15 469 callsubr
          92 -692 -5 callsubr
          -217 -43 callgsubr
          158 156 rmoveto
          -58 -32 -34 -61 vhcurveto
          -57 43 callsubr
          endchar
        </CharString>
        <CharString name="acircumflex">
          13 -59 callgsubr
          95 187 callsubr
        </CharString>
        <CharString name="acute">
          -217 145 703 291 callsubr
        </CharString>
        <CharString name="adieresis">
          13 -59 callgsubr
          114 164 callgsubr
        </CharString>
        <CharString name="ae">
          290 360 152 rmoveto
          -61 -34 -30 -59 vhcurveto
          -53 hlineto
          -59 -29 30 58 hvcurveto
          18 vlineto
          57 28 30 60 vhcurveto
          136 194 callgsubr
          301 21 510 callgsubr
          -209 hlineto
          -7 -3 3 7 hvcurveto
          96 vlineto
          57 34 27 55 vhcurveto
          56 365 callsubr
          -229 -165 rmoveto
          6 3 3 7 vhcurveto
          270 hlineto
          10 4 4 11 hvcurveto
          144 300 callsubr
          -91 vhcurveto
          -61 hlineto
          -49 -48 -15 -48 -24 hvcurveto
          47 -24 -49 16 -50 hhcurveto
          -155 119 callsubr
          -36 116 callgsubr
          157 hlineto
          54 29 -29 -57 hvcurveto
          -42 vlineto
          -5 -2 -3 -6 vhcurveto
          -146 hlineto
          -92 -56 -52 -93 hvcurveto
          -20 vlineto
          -91 58 -54 90 vhcurveto
          48 hlineto
          58 50 16 48 24 hvcurveto
          -45 24 40 -19 58 hhcurveto
          205 hlineto
          370 callsubr
          37 156 callgsubr
          -196 563 callsubr
          endchar
        </CharString>
        <CharString name="agrave">
          13 -59 callgsubr
          42 690 rmoveto
          9 -5 -7 4 -9 hhcurveto
          -61 hlineto
          -8 -5 -6 -8 7 437 callsubr
        </CharString>
        <CharString name="amacron">
          13 -59 callgsubr
          171 613 124 callgsubr
        </CharString>
        <CharString name="ampersand">
          109 461 10 rmoveto
          -7 6 9 -3 8 hhcurveto
          58 hlineto
          7 0 7 4 -3 hvcurveto
          -194 227 rlineto
          180 hlineto
          11 4 4 9 hvcurveto
          37 183 callsubr
          -234 hlineto
          -58 67 rlineto
          -29 32 -15 28 38 vvcurveto
          29 vlineto
          56 28 29 55 vhcurveto
          16 hlineto
          52 28 -29 -56 hvcurveto
          -41 316 callgsubr
          45 hlineto
          9 4 4 11 hvcurveto
          42 vlineto
          93 -56 53 -91 vhcurveto
          -27 hlineto
          -91 -60 -53 -93 hvcurveto
          -29 vlineto
          -47 14 -34 30 -36 vhcurveto
          -74 -5 -30 -63 -60 vvcurveto
          -77 vlineto
          -93 56 -53 91 vhcurveto
          75 hlineto
          65 41 24 49 17 hvcurveto
          -189 -8 rmoveto
          -57 -29 28 56 hvcurveto
          70 vlineto
          57 23 29 49 3 vhcurveto
          157 -183 rlineto
          -40 -7 -26 -20 -44 hhcurveto
          endchar
        </CharString>
        <CharString name="aogonek">
          13 215 64 rmoveto
          17 callgsubr
          140 194 callgsubr
          -281 vlineto
          233 callgsubr
          -65 446 rmoveto
          -92 398 callgsubr
          -214 vlineto
          -93 56 -55 589 callsubr
          51 148 callsubr
          -36 hlineto
          -53 -77 rlineto
          -20 -15 2 -34 33 hhcurveto
          35 42 15 19 1 hvcurveto
          10 2 -6 3 -19 hhcurveto
          -1 -7 -23 -1 -10 hhcurveto
          -2 31 46 23 17 hvcurveto
          31 489 callgsubr
        </CharString>
        <CharString name="apostrophemod">
          -313 125 630 98 callsubr
          endchar
        </CharString>
        <CharString name="approxequal">
          41 170 393 rmoveto
          179 callsubr
          -171 vmoveto
          179 callsubr
          endchar
        </CharString>
        <CharString name="aring">
          13 179 615 rmoveto
          -42 21 435 callgsubr
          -21 -17 -41 hvcurveto
          32 349 callsubr
          48 -623 -5 callsubr
          -217 -43 callgsubr
          158 156 rmoveto
          -58 -32 -34 -61 vhcurveto
          -57 43 callsubr
          endchar
        </CharString>
        <CharString name="asciicircum">
          -15 353 378 rmoveto
          -10 6 4 -4 10 hhcurveto
          40 hlineto
          10 6 5 11 -6 hvcurveto
          -128 243 rlineto
          15 -7 -7 5 -16 hhcurveto
          -52 hlineto
          -16 -7 -5 -15 -7 hvcurveto
          -128 -243 rlineto
          -11 -6 6 -5 10 hhcurveto
          40 hlineto
          10 4 4 10 6 hvcurveto
          114 219 rlineto
          endchar
        </CharString>
        <CharString name="asciitilde">
          41 170 309 rmoveto
          57 74 -30 62 hhcurveto
          30 29 6 9 22 hvcurveto
          16 7 5 5 12 vvcurveto
          31 vlineto
          7 -4 5 -6 vhcurveto
          -13 -32 -25 -45 -63 -68 31 -62 hhcurveto
          -30 -29 -6 -9 -22 hvcurveto
          -15 -7 -6 -5 -13 vvcurveto
          -30 vlineto
          -7 4 -5 7 vhcurveto
          13 32 24 44 hhcurveto
          endchar
        </CharString>
        <CharString name="asterisk">
          -90 230 630 rmoveto
          10 41 callsubr
          -30 337 callsubr
          -14 vlineto
          -57 26 -51 3 -9 vhcurveto
          5 9 23 51 57 vvcurveto
          -127 -206 rmoveto
          -6 -9 2 -6 7 -4 24 -18 rcurveline
          8 -5 6 0 5 7 8 12 rcurveline
          34 46 8 57 3 9 -9 -5 -48 -27 -34 -47 rrcurveto
          -24 145 rmoveto
          -10 3 -5 -3 -2 -8 -10 -29 rcurveline
          -3 -8 3 -6 8 -3 14 -4 rcurveline
          -18 54 57 10 9 hhcurveto
          -7 7 -41 37 -55 18 rrcurveto
          236 -48 rmoveto
          10 3 2 6 -3 8 -9 29 rcurveline
          -3 9 -4 2 -10 -3 -14 -4 rcurveline
          -55 -17 -39 -41 -8 -6 10 -2 56 -6 54 18 rrcurveto
          -66 -132 rmoveto
          7 -8 5 1 7 4 25 18 rcurveline
          7 5 1 6 -5 7 -8 12 rcurveline
          -34 46 -51 25 -8 6 1 -10 11 -55 35 -46 rrcurveto
          endchar
        </CharString>
        <CharString name="at">
          257 462 233 rmoveto
          -58 -32 -34 -60 vhcurveto
          -2 563 callsubr
          88 vlineto
          56 28 31 56 vhcurveto
          84 hlineto
          8 2 -3 -7 hvcurveto
          46 -451 rmoveto
          316 callsubr
          20 336 callsubr
          -182 hlineto
          -111 -91 78 127 hvcurveto
          157 vlineto
          127 87 78 111 vhcurveto
          191 hlineto
          70 48 -40 -73 hvcurveto
          -221 vlineto
          -59 -31 -32 -57 vhcurveto
          -5 hlineto
          -8 -6 3 7 hvcurveto
          305 89 callgsubr
          -151 hlineto
          -84 398 callgsubr
          -84 vlineto
          -92 56 -52 79 38 46 11 42 20 vhcurveto
          4 -15 hlineto
          -26 22 -13 23 vhcurveto
          39 hlineto
          79 55 53 81 hvcurveto
          230 vlineto
          92 -66 64 -97 vhcurveto
          -198 hlineto
          -129 -115 -97 -152 hvcurveto
          -165 vlineto
          -157 120 -90 132 vhcurveto
          endchar
        </CharString>
        <CharString name="atilde">
          14 -59 callgsubr
          -46 653 rmoveto
          -49 14 -28 49 26 17 6 44 18 232 callgsubr
          6 vhcurveto
          21 hlineto
          7 423 callgsubr
          -50 -27 207 callgsubr
          -3 2 -6 vhcurveto
          -21 hlineto
          -7 -3 -2 -9 hvcurveto
          endchar
        </CharString>
        <CharString name="b">
          16 69 505 callsubr
          221 hlineto
          244 callsubr
          221 vlineto
          92 -56 553 callgsubr
          226 48 callgsubr
          83 -625 rmoveto
          -7 -3 3 6 hvcurveto
          288 vlineto
          57 32 34 61 vhcurveto
          59 hlineto
          57 28 -30 -57 hvcurveto
          -214 vlineto
          -56 -28 -31 -57 vhcurveto
          endchar
        </CharString>
        <CharString name="backslash">
          -94 275 15 rmoveto
          -11 5 606 callsubr
          42 hlineto
          9 6 5 11 -4 hvcurveto
          -28 73 -166 466 -28 73 rrcurveto
          10 -5 -4 5 -10 hhcurveto
          -43 hlineto
          -10 -4 -6 -11 4 hvcurveto
          endchar
        </CharString>
        <CharString name="bar">
          -280 134 629 rmoveto
          -35 callgsubr
          -27 528 callgsubr
          -11 hvcurveto
          -615 565 callgsubr
          27 hlineto
          23 callgsubr
          endchar
        </CharString>
        <CharString name="braceleft">
          -191 227 643 rmoveto
          -85 -39 -55 -93 hvcurveto
          -123 vlineto
          -52 -20 -18 -36 -11 -3 -5 -9 vhcurveto
          -36 vlineto
          -9 3 -5 11 36 20 -18 -51 vhcurveto
          -123 vlineto
          -93 39 -55 85 vhcurveto
          5 hlineto
          316 callsubr
          27 156 callgsubr
          -3 hlineto
          -51 -14 30 57 hvcurveto
          134 vlineto
          50 -19 35 -38 11 vhcurveto
          39 13 18 32 52 vvcurveto
          134 vlineto
          57 14 30 51 vhcurveto
          3 hlineto
          316 callsubr
          27 156 callgsubr
          endchar
        </CharString>
        <CharString name="braceright">
          -191 176 495 rmoveto
          93 -39 55 -85 vhcurveto
          -5 119 callsubr
          -27 116 callgsubr
          3 hlineto
          50 15 -30 -57 hvcurveto
          -134 vlineto
          -52 18 -32 39 -13 vhcurveto
          -38 -11 -19 -35 -50 vvcurveto
          -134 vlineto
          -57 -15 -30 -50 vhcurveto
          -3 119 callsubr
          -27 116 callgsubr
          5 hlineto
          85 39 55 93 hvcurveto
          123 vlineto
          51 20 18 36 11 3 5 9 vhcurveto
          36 298 callgsubr
          -36 -20 18 52 vhcurveto
          endchar
        </CharString>
        <CharString name="bracketleft">
          -197 217 -100 rmoveto
          10 4 5 8 538 callgsubr
          -78 hlineto
          -7 -3 3 7 hvcurveto
          617 430 callgsubr
          78 hlineto
          372 callgsubr
          25 170 callgsubr
          -136 hlineto
          -10 212 callgsubr
          -715 vlineto
          -10 4 -14 callsubr
          endchar
        </CharString>
        <CharString name="bracketright">
          -197 60 -87 rmoveto
          -8 276 callgsubr
          136 hlineto
          9 4 4 10 hvcurveto
          715 vlineto
          10 -4 4 -9 vhcurveto
          -136 119 callsubr
          -25 116 callgsubr
          78 hlineto
          7 3 -3 -7 hvcurveto
          -617 210 callsubr
          -78 119 callsubr
          endchar
        </CharString>
        <CharString name="breve">
          -160 63 680 rmoveto
          -72 32 -34 63 vhcurveto
          17 hlineto
          63 33 301 callgsubr
          -3 3 -7 vhcurveto
          -28 hlineto
          -7 -3 -3 -8 hvcurveto
          endchar
        </CharString>
        <CharString name="brokenbar">
          -285 133 255 rmoveto
          -35 callgsubr
          -29 hlineto
          8 callgsubr
          hvcurveto
          -241 -13 callsubr
          29 hlineto
          23 callgsubr
          615 vmoveto
          -35 callgsubr
          -29 hlineto
          8 callgsubr
          hvcurveto
          -241 -13 callsubr
          29 hlineto
          23 callgsubr
          endchar
        </CharString>
        <CharString name="bullet">
          -215 197 372 rmoveto
          23 -14 13 -22 vhcurveto
          -43 hlineto
          -23 -13 -13 -23 hvcurveto
          -105 vlineto
          -24 13 -12 23 vhcurveto
          43 hlineto
          22 14 12 24 hvcurveto
          endchar
        </CharString>
        <CharString name="c">
          67 callgsubr
          endchar
        </CharString>
        <CharString name="cacute">
          67 callgsubr
          -88 690 rmoveto
          -9 -7 -4 -9 -6 hvcurveto
          -57 211 callsubr
        </CharString>
        <CharString name="caron">
          -162 148 574 rmoveto
          34 hlineto
          10 224 callsubr
          -35 hlineto
          -6 -5 -2 -6 -3 hvcurveto
          -47 354 callsubr
          endchar
        </CharString>
        <CharString name="ccaron">
          67 callgsubr
          -146 561 82 callgsubr
        </CharString>
        <CharString name="ccedilla">
          -95 352 446 rmoveto
          333 callsubr
          -145 -43 callgsubr
          26 hlineto
          -37 -42 447 callsubr
          -7 -24 hvcurveto
          -2 vlineto
          -21 -12 -8 -39 vhcurveto
          -23 hlineto
          -11 -2 -3 -10 hvcurveto
          -14 vlineto
          -9 2 -4 11 vhcurveto
          30 hlineto
          54 529 callsubr
          41 43 rlineto
          66 hlineto
          11 3 4 9 hvcurveto
          37 vlineto
          180 callgsubr
          endchar
        </CharString>
        <CharString name="cedilla">
          -235 70 -42 rmoveto
          -18 -15 9 -26 24 hhcurveto
          16 hlineto
          39 11 -7 -24 hvcurveto
          -2 vlineto
          -21 -12 -8 -38 306 callgsubr
          506 callsubr
          -28 17 -48 vhcurveto
          4 vlineto
          59 63 rlineto
          -54 hlineto
          endchar
        </CharString>
        <CharString name="cent">
          -75 276 -91 rmoveto
          8 5 3 10 hvcurveto
          78 78 vlineto
          11 4 5 9 hvcurveto
          37 vlineto
          8 -4 5 -11 vhcurveto
          -152 28 callsubr
          152 hlineto
          11 4 5 8 hvcurveto
          37 vlineto
          9 -12 5 -10 vhcurveto
          -71 88 hlineto
          9 -5 4 -8 vhcurveto
          -36 hlineto
          -8 228 callsubr
          -87 -26 vlineto
          -88 -54 -57 -91 hvcurveto
          -214 vlineto
          -91 54 -57 88 vhcurveto
          26 -77 hlineto
          -10 5 -4 8 vhcurveto
          endchar
        </CharString>
        <CharString name="circumflex">
          -162 203 693 rmoveto
          7 -5 372 callsubr
          -34 hlineto
          -9 -6 -3 -7 -5 hvcurveto
          -63 -107 rlineto
          -7 -4 1 -5 8 573 callgsubr
          47 -88 rlineto
          -6 3 5 -2 6 hhcurveto
          35 448 callsubr
        </CharString>
        <CharString name="colon">
          -300 136 135 237 callgsubr
          8 386 callsubr
          483 vmoveto
          355 callsubr
          endchar
        </CharString>
        <CharString name="comma">
          293 callgsubr
          -226 vlineto
          -10 5 -3 5 5 4 3 5 3 vhcurveto
          40 94 rlineto
          10 24 5 15 19 vvcurveto
          endchar
        </CharString>
        <CharString name="copyright">
          223 200 643 rmoveto
          -79 -51 -50 -81 hvcurveto
          -381 vlineto
          -81 51 -50 79 vhcurveto
          317 hlineto
          80 51 50 81 hvcurveto
          381 vlineto
          81 -51 50 -80 vhcurveto
          -306 -595 rmoveto
          -59 -30 31 59 hvcurveto
          367 vlineto
          59 30 31 59 vhcurveto
          295 hlineto
          59 30 -31 -59 hvcurveto
          -367 vlineto
          -59 -30 -31 -59 vhcurveto
          -13 354 rmoveto
          78 -42 34 -76 vhcurveto
          -34 hlineto
          -76 -42 -34 -78 hvcurveto
          -165 vlineto
          -77 42 -35 76 vhcurveto
          34 hlineto
          76 42 35 77 hvcurveto
          26 vlineto
          9 -4 2 -6 vhcurveto
          -32 hlineto
          -6 -4 -2 -9 hvcurveto
          -19 vlineto
          -59 -18 -13 -58 vhcurveto
          -14 hlineto
          -58 -18 13 59 hvcurveto
          152 vlineto
          58 18 14 58 vhcurveto
          14 hlineto
          58 18 -14 -58 hvcurveto
          -16 vlineto
          -8 4 -3 6 vhcurveto
          32 hlineto
          6 4 3 8 hvcurveto
          endchar
        </CharString>
        <CharString name="d">
          16 100 callgsubr
          endchar
        </CharString>
        <CharString name="dagger">
          -73 216 hmoveto
          9 5 3 11 1 hvcurveto
          4 27 11 223 60 vvcurveto
          32 -4 46 -6 22 166 callsubr
          129 9 rlineto
          -5 -24 -4 -47 -28 vvcurveto
          -61 11 -223 4 -27 vhcurveto
          -11 1 5 -3 9 hhcurveto
          endchar
        </CharString>
        <CharString name="daggerdbl">
          -73 182 424 rmoveto
          -5 -25 -3 -50 -29 vvcurveto
          -30 3 -48 5 -24 vhcurveto
          -129 9 rlineto
          -11 1 -3 -6 -9 vvcurveto
          -39 vlineto
          -9 3 -5 11 2 vhcurveto
          131 9 -11 -157 rlineto
          -11 -1 6 -3 9 hhcurveto
          45 hlineto
          23 callgsubr
          -11 158 133 -10 rlineto
          11 -2 3 5 9 vvcurveto
          39 vlineto
          9 -3 6 -11 -1 vhcurveto
          -132 -10 rlineto
          6 24 4 47 31 vvcurveto
          32 -4 50 -6 23 166 callsubr
          endchar
        </CharString>
        <CharString name="danda">
          -201 135 15 197 callsubr
          endchar
        </CharString>
        <CharString name="dcaron">
          69 100 callgsubr
          365 690 429 callsubr
          -44 hlineto
          -8 462 callgsubr
          5 -2 6 4 4 2 5 3 vhcurveto
          33 95 rlineto
          9 24 6 17 24 vvcurveto
          endchar
        </CharString>
        <CharString name="dcroat">
          52 369 156 rmoveto
          -58 -33 -34 -60 vhcurveto
          -61 156 callsubr
          145 vlineto
          57 27 30 56 vhcurveto
          61 hlineto
          60 33 -34 -57 hvcurveto
          -107 -292 rmoveto
          52 148 callsubr
          -39 hlineto
          -11 4 -3 9 vhcurveto
          46 hlineto
          9 4 3 11 hvcurveto
          526 vlineto
          7 3 3 8 vhcurveto
          60 hlineto
          11 4 4 9 hvcurveto
          30 526 callgsubr
          -11 vhcurveto
          -60 hlineto
          -8 -3 3 7 hvcurveto
          73 vlineto
          11 -4 226 callgsubr
          -3 -11 hvcurveto
          -73 195 callsubr
          -152 hlineto
          -10 549 callsubr
          -30 vlineto
          -9 3 -14 callsubr
          152 394 callsubr
          -146 -4 vlineto
          32 -15 -36 21 -52 hhcurveto
          -55 hlineto
          -92 -56 -55 -92 hvcurveto
          -152 vlineto
          -93 56 -55 92 vhcurveto
          endchar
        </CharString>
        <CharString name="degree">
          -173 167 545 rmoveto
          -13 hlineto
          -24 -5 6 23 hvcurveto
          65 vlineto
          24 5 5 24 vhcurveto
          13 hlineto
          23 6 -5 -24 hvcurveto
          -65 vlineto
          -23 -6 -6 -23 vhcurveto
          17 -34 rmoveto
          30 20 18 31 hvcurveto
          97 vlineto
          30 -20 17 -30 vhcurveto
          -48 hlineto
          -31 -18 -17 -30 hvcurveto
          -97 vlineto
          -31 18 -18 31 vhcurveto
          endchar
        </CharString>
        <CharString name="dieresis">
          -128 233 588 rmoveto
          542 callsubr
          42 hlineto
          9 5 130 callsubr
          -9 vhcurveto
          -42 193 callsubr
          -170 -101 431 callgsubr
          42 hlineto
          9 5 130 callsubr
          -9 vhcurveto
          -42 268 callgsubr
          endchar
        </CharString>
        <CharString name="divide">
          2 221 433 rmoveto
          542 callsubr
          27 462 callsubr
          58 248 callsubr
          -27 193 callsubr
          188 -197 600 callgsubr
          4 -11 vhcurveto
          -321 hlineto
          -11 -4 -4 -9 hvcurveto
          -26 269 callgsubr
          133 -143 509 callsubr
          27 hlineto
          23 callgsubr
          57 89 callgsubr
          -27 hlineto
          8 callgsubr
          hvcurveto
          endchar
        </CharString>
        <CharString name="dollar">
          17 281 -98 rmoveto
          23 callgsubr
          84 7 vlineto
          90 57 56 92 hvcurveto
          58 vlineto
          116 -69 30 -79 3 vhcurveto
          -62 2 rlineto
          -65 2 -39 16 64 vvcurveto
          47 vlineto
          64 28 30 61 vhcurveto
          59 hlineto
          61 28 -30 -60 hvcurveto
          -19 vlineto
          -11 263 callgsubr
          11 hvcurveto
          25 vlineto
          91 -56 57 -87 vhcurveto
          -7 85 hlineto
          -35 callgsubr
          -34 hlineto
          8 callgsubr
          hvcurveto
          -85 -24 vlineto
          -91 -56 -56 -92 hvcurveto
          -55 vlineto
          -120 71 -27 83 -3 vhcurveto
          55 -1 rlineto
          64 -3 41 -17 -67 vvcurveto
          -47 vlineto
          -62 -29 -30 -60 vhcurveto
          -63 hlineto
          -60 -29 30 60 hvcurveto
          22 vlineto
          11 -4 226 callgsubr
          -3 -11 hvcurveto
          -28 vlineto
          -91 56 -57 90 vhcurveto
          24 -84 hlineto
          -22 callgsubr
          endchar
        </CharString>
        <CharString name="dotaccent">
          -296 63 590 431 callgsubr
          46 hlineto
          9 4 4 10 hvcurveto
          98 vlineto
          10 -5 3 -8 vhcurveto
          -46 268 callgsubr
          endchar
        </CharString>
        <CharString name="dotlessi">
          -269 76 14 rmoveto
          -11 5 -3 8 vhcurveto
          46 hlineto
          10 3 3 11 hvcurveto
          482 vlineto
          11 -4 226 callgsubr
          -3 -11 hvcurveto
          endchar
        </CharString>
        <CharString name="dottedcircle">
          166 139 517 rmoveto
          -26 18 -19 26 26 18 19 26 25 -18 19 -26 -26 -18 -19 -25 vhcurveto
          -82 -110 rmoveto
          -25 20 -19 26 24 20 19 25 25 -20 19 -24 -26 -20 -19 -25 vhcurveto
          -13 -126 rmoveto
          -25 19 -18 25 26 18 18 596 callgsubr
          52 -116 rmoveto
          -26 18 -18 26 25 19 18 26 25 -19 19 -25 -26 -18 -19 -25 vhcurveto
          101 -75 rmoveto
          -26 19 -20 26 25 19 20 26 24 -19 20 -25 -26 -19 -20 -24 vhcurveto
          127 -16 rmoveto
          -26 18 -18 26 26 19 18 26 26 -19 18 -26 -26 -18 -18 -26 vhcurveto
          121 53 rmoveto
          -26 19 -18 25 25 20 18 26 25 -20 19 -25 -25 -19 -19 -25 vhcurveto
          73 98 rmoveto
          -25 19 -19 26 24 19 19 25 26 -19 19 -24 -26 -19 -19 -26 vhcurveto
          10 134 rmoveto
          -26 18 -18 26 25 19 18 26 26 -19 18 -25 -26 -18 -18 -26 vhcurveto
          -50 118 rmoveto
          -25 19 -19 25 26 18 19 596 callgsubr
          -95 68 rmoveto
          -24 19 -20 26 25 18 20 24 26 -18 19 -25 -26 -19 -19 -26 vhcurveto
          -126 15 rmoveto
          -26 18 -18 26 26 18 18 26 26 -18 18 -26 -26 -18 -18 -26 vhcurveto
          endchar
        </CharString>
        <CharString name="doubledanda">
          32 135 15 197 callsubr
          233 -593 197 callsubr
          endchar
        </CharString>
        <CharString name="dvA">
          107 479 -32 callsubr
          75 hlineto
          12 -107 callsubr
          -12 vhcurveto
          endchar
        </CharString>
        <CharString name="dvAA">
          339 478 623 rmoveto
          -33 callgsubr
          2 -4 -6 hvcurveto
          -538 vlineto
          -11 6 -4 9 vhcurveto
          39 hlineto
          10 5 4 11 hvcurveto
          538 -103 callsubr
          endchar
        </CharString>
        <CharString name="dvAI">
          30 469 623 rmoveto
          -14 -3 125 callgsubr
          41 -61 39 -49 32 -35 rlinecurve
          -399 -86 callsubr
          75 -101 callgsubr
          -361 vlineto
          -95 61 -67 102 vhcurveto
          171 hlineto
          11 1 4 4 11 vvcurveto
          32 vlineto
          9 -4 6 -11 vhcurveto
          -160 hlineto
          -69 -37 37 65 hvcurveto
          358 414 callsubr
          8 vhcurveto
          222 -101 callgsubr
          -131 vlineto
          -66 -35 -18 -49 vhcurveto
          -33 hlineto
          -11 240 callsubr
          40 hlineto
          88 57 45 100 hvcurveto
          131 414 callsubr
          8 vhcurveto
          55 -100 callsubr
          endchar
        </CharString>
        <CharString name="dvAU">
          340 760 623 rmoveto
          -6 -2 4 7 hvcurveto
          229 vlineto
          12 -5 3 -10 vhcurveto
          -36 30 callgsubr
          -41 vlineto
          -74 13 -69 15 -34 vhcurveto
          -3 -2 -137 222 rlineto
          9 -5 -6 4 -15 hhcurveto
          -37 hlineto
          -8 -5 -5 -7 -4 1 -3 3 -4 hvcurveto
          59 -87 47 -67 48 -56 24 -18 rlinecurve
          -4 -201 vlineto
          -33 callgsubr
          3 -4 -6 hvcurveto
          -538 vlineto
          -11 5 -14 callsubr
          38 hlineto
          10 5 4 11 hvcurveto
          538 -103 callsubr
          endchar
        </CharString>
        <CharString name="dvAbbreviationsign">
          -88 365 291 rmoveto
          41 vlineto
          89 -54 53 -89 vhcurveto
          -37 hlineto
          -89 -54 -53 -89 hvcurveto
          -41 vlineto
          -89 54 -53 89 vhcurveto
          37 hlineto
          89 54 53 89 hvcurveto
          -256 3 rmoveto
          35 vlineto
          58 26 30 59 vhcurveto
          19 hlineto
          58 27 -30 -58 hvcurveto
          -35 vlineto
          -58 -27 -30 -58 vhcurveto
          -19 hlineto
          -59 -26 30 58 hvcurveto
          endchar
        </CharString>
        <CharString name="dvAcandra">
          107 479 -32 callsubr
          75 hlineto
          12 -107 callsubr
          -12 vhcurveto
          -5 218 rmoveto
          255 callgsubr
          81 hlineto
          80 39 43 83 hvcurveto
          5 396 callsubr
          endchar
        </CharString>
        <CharString name="dvAnusvara">
          -494 -82 790 rmoveto
          10 329 callsubr
          -46 hlineto
          294 callsubr
          endchar
        </CharString>
        <CharString name="dvAnusvara.amI">
          -494 113 340 callsubr
          endchar
        </CharString>
        <CharString name="dvAvagraha">
          40 453 202 rmoveto
          78 -32 26 -106 53 vhcurveto
          -98 49 -32 31 49 vvcurveto
          54 15 21 64 vhcurveto
          134 -104 callgsubr
          -145 hlineto
          -109 -28 -40 -96 -79 29 -45 102 -52 hvcurveto
          87 -43 51 -15 -55 vvcurveto
          -50 vlineto
          -52 -16 -34 -66 vhcurveto
          -51 hlineto
          -58 -26 37 39 -36 hvcurveto
          5 -5 -5 4 -6 hhcurveto
          -4 -3 -1 -5 -6 hvcurveto
          -15 -12 rlineto
          -6 -5 -3 -4 -6 vvcurveto
          -5 3 -5 3 -3 vhcurveto
          -41 30 51 -60 84 hhcurveto
          62 hlineto
          96 45 54 89 hvcurveto
          endchar
        </CharString>
        <CharString name="dvB">
          -224 456 callgsubr
          202 148 callgsubr
          105 128 rmoveto
          -10 -5 -3 -12 hvcurveto
          -22 454 callsubr
          -1 -8 -17 callgsubr
          -94 -56 -56 -93 297 callgsubr
          -56 589 callsubr
          87 55 55 99 hvcurveto
          19 338 callsubr
          -389 353 -95 callgsubr
          391 -100 callsubr
          endchar
        </CharString>
        <CharString name="dvBA">
          6 211 142 43 callgsubr
          -260 36 callsubr
          342 -21 callsubr
          -94 -55 -56 -93 -1 297 callgsubr
          -55 93 vhcurveto
          42 369 callsubr
          15 hvcurveto
          4 -111 hlineto
          -11 6 -5 9 vhcurveto
          39 hlineto
          9 6 -84 callsubr
          endchar
        </CharString>
        <CharString name="dvBH">
          -228 360 275 rmoveto
          -102 callsubr
          -208 hlineto
          1 callsubr
          207 288 rmoveto
          -102 callsubr
          -95 hlineto
          -10 -105 callgsubr
          10 vhcurveto
          endchar
        </CharString>
        <CharString name="dvBHA">
          3 336 275 rmoveto
          7 3 -4 -7 hvcurveto
          -249 -61 callgsubr
          -231 hlineto
          40 callsubr
          -9 -86 callsubr
          9 hlineto
          43 25 -22 -53 91 callgsubr
          endchar
        </CharString>
        <CharString name="dvBH_LA">
          441 265 623 rmoveto
          -9 -5 -4 -8 -1 hvcurveto
          -1 vlineto
          0 vlineto
          0 vlineto
          0 577 callgsubr
          -30 378 callgsubr
          509 -101 callgsubr
          -147 -4 vlineto
          435 callsubr
          -75 -51 -35 -73 -14 hvcurveto
          -183 hlineto
          1 callsubr
          178 -92 hlineto
          -83 callgsubr
          28 20 52 53 27 -21 -65 vhcurveto
          -278 vlineto
          -11 5 -14 callsubr
          38 hlineto
          10 5 4 11 hvcurveto
          538 -98 callgsubr
          endchar
        </CharString>
        <CharString name="dvBH_NA">
          273 264 623 rmoveto
          -71 callsubr
          343 hlineto
          7 2 285 callsubr
          -44 -31 -18 -30 -17 hvcurveto
          -188 hlineto
          1 callsubr
          174 hlineto
          1 -24 5 -28 11 -20 rrcurveto
          57 callgsubr
          -5 15 -4 458 callsubr
          153 -101 callgsubr
          -296 vlineto
          -11 5 -14 callsubr
          38 hlineto
          10 6 4 11 hvcurveto
          538 vlineto
          6 2 173 callsubr
          endchar
        </CharString>
        <CharString name="dvBH_R">
          -231 361 259 callsubr
          -96 hlineto
          -10 -64 callgsubr
          10 vhcurveto
          -113 -219 rmoveto
          81 callsubr
          182 223 callsubr
        </CharString>
        <CharString name="dvBH_RA">
          3 269 623 rmoveto
          292 callsubr
          -199 183 callgsubr
          -184 hlineto
          81 callsubr
          183 hlineto
          5 3 -2 -3 1 hvcurveto
          -247 -268 208 callgsubr
          6 4 8 7 hvcurveto
          172 193 rlineto
          -180 -61 callgsubr
          endchar
        </CharString>
        <CharString name="dvBH_R_YA">
          350 693 -92 callgsubr
          -421 70 rmoveto
          67 callsubr
          -35 -183 vlineto
          81 callsubr
          182 -17 hlineto
          -237 -256 208 callgsubr
          6 4 8 7 hvcurveto
          174 193 rlineto
          -59 23 55 -42 83 hhcurveto
          68 -41 callsubr
          9 vhcurveto
          39 hlineto
          10 5 4 11 hvcurveto
          538 -103 callsubr
          endchar
        </CharString>
        <CharString name="dvBH_VA">
          272 265 623 rmoveto
          -10 -105 callgsubr
          10 vhcurveto
          341 -63 callsubr
          -90 -55 -52 -87 -5 hvcurveto
          -178 hlineto
          1 callsubr
          177 -40 hlineto
          227 callgsubr
          35 hlineto
          45 35 15 29 16 hvcurveto
          4 -114 hlineto
          -11 5 -5 10 vhcurveto
          38 hlineto
          10 5 -84 callsubr
          endchar
        </CharString>
        <CharString name="dvBH_YA">
          344 687 -92 callgsubr
          -422 70 rmoveto
          -2 -2 0 -1 -1 hvcurveto
          -7 -1 -3 -4 -8 vvcurveto
          -31 378 callgsubr
          136 416 callsubr
          -177 vlineto
          1 callsubr
          176 -10 hlineto
          -94 61 -77 113 vhcurveto
          68 -41 callsubr
          9 vhcurveto
          39 hlineto
          10 5 4 11 hvcurveto
          538 -103 callsubr
          endchar
        </CharString>
        <CharString name="dvB_BA">
          301 506 142 43 callgsubr
          -340 hmoveto
          -35 callsubr
          637 -21 callsubr
          -94 -55 -56 -93 -1 hvcurveto
          -98 vlineto
          -4 0 -5 -4 vvcurveto
          -4 0 -4 -1 -3 -17 callgsubr
          -94 -56 -56 -93 297 callgsubr
          -56 589 callsubr
          53 41 20 38 24 hvcurveto
          -37 25 44 -20 56 hhcurveto
          42 369 callsubr
          15 hvcurveto
          4 -111 hlineto
          -11 6 -5 9 vhcurveto
          39 hlineto
          9 6 -84 callsubr
          endchar
        </CharString>
        <CharString name="dvB_BHA">
          281 456 callgsubr
          200 -201 rlineto
          -14 -15 -22 -8 -28 hhcurveto
          286 481 rmoveto
          -12 -8 -103 callgsubr
          8 -5 12 vhcurveto
          66 -101 callgsubr
          -190 183 callgsubr
          408 callgsubr
          126 vlineto
          86 -49 47 -86 vhcurveto
          -288 -86 callsubr
          288 hlineto
          42 602 callgsubr
          -260 454 callsubr
          -2 -7 vhcurveto
          -196 198 rlineto
          11 15 20 6 25 hhcurveto
          38 callgsubr
          -94 -56 -56 -93 297 callgsubr
          -55 92 vhcurveto
          64 hlineto
          95 51 60 78 3 hvcurveto
          3 vlineto
          58 222 callsubr
          8 vhcurveto
          193 -278 hlineto
          -11 5 -14 callsubr
          38 231 callsubr
          3 5 10 hvcurveto
          30 185 callsubr
        </CharString>
        <CharString name="dvB_BH_RA">
          280 456 callsubr
          202 -199 rlineto
          -17 -14 -22 -10 -32 hhcurveto
          285 481 rmoveto
          -11 -8 -103 callgsubr
          8 -5 11 vhcurveto
          66 -20 callsubr
          -190 563 callgsubr
          -183 hlineto
          545 callgsubr
          126 169 callgsubr
          -287 -86 callsubr
          287 hlineto
          42 26 -22 -53 hvcurveto
          -264 vlineto
          -2 vlineto
          0 vlineto
          -1 -4 0 -4 -1 -3 -195 193 rcurveline
          10 14 20 319 callgsubr
          68 hlineto
          98 46 61 79 1 hvcurveto
          1 vlineto
          58 222 callsubr
          7 vhcurveto
          194 -21 hlineto
          -243 -264 517 callsubr
          -4 vvcurveto
          -5 4 -5 9 426 callsubr
          166 187 rlineto
          -171 vlineto
          -11 5 -14 callsubr
          38 hlineto
          10 5 4 11 hvcurveto
          538 -103 callsubr
          endchar
        </CharString>
        <CharString name="dvB_DA">
          284 212 142 rmoveto
          -35 callsubr
          625 65 callgsubr
          -80 454 callsubr
          -1 -8 -17 callgsubr
          -94 -56 -56 -93 297 callgsubr
          -56 589 callsubr
          52 40 20 36 25 hvcurveto
          -37 24 42 -22 58 hhcurveto
          63 hlineto
          36 28 10 24 14 hvcurveto
          -93 callsubr
          endchar
        </CharString>
        <CharString name="dvB_DHA">
          349 212 145 rmoveto
          -60 -30 32 59 hvcurveto
          92 vlineto
          14 2 12 3 11 vhcurveto
          201 -198 rlineto
          -15 -15 -22 -7 -29 hhcurveto
          352 478 rmoveto
          11 callgsubr
          21 hlineto
          11 -107 callsubr
          -11 vhcurveto
          -506 -86 callsubr
          387 388 callsubr
          -35 vlineto
          -3 -1 -3 -1 -4 vhcurveto
          -196 194 rlineto
          11 15 20 6 25 hhcurveto
          48 -99 callgsubr
          -54 hlineto
          -94 -56 -56 -93 hvcurveto
          -95 vlineto
          -94 58 -56 92 vhcurveto
          49 hlineto
          50 39 16 31 25 hvcurveto
          -38 23 42 -20 57 hhcurveto
          102 hlineto
          44 35 18 30 15 hvcurveto
          4 -107 hlineto
          -11 5 -14 callsubr
          38 hlineto
          10 5 4 11 hvcurveto
          538 -103 callsubr
          endchar
        </CharString>
        <CharString name="dvB_DH_VA">
          613 456 callsubr
          201 -198 rlineto
          -18 -17 -19 -10 -36 hhcurveto
          384 36 callsubr
          306 -14 callgsubr
          -21 3 -19 5 -16 vhcurveto
          -21 -19 -21 -18 -43 hhcurveto
          473 callsubr
          5 194 callsubr
          -5 6 -11 vhcurveto
          -62 hlineto
          -45 -24 23 46 hvcurveto
          37 270 callgsubr
          24 -104 callgsubr
          -516 -86 callsubr
          393 485 callgsubr
          -4 vlineto
          195 callgsubr
          -37 vlineto
          -13 vlineto
          0 vlineto
          -203 201 rlineto
          10 14 20 319 callgsubr
          46 hlineto
          60 39 24 28 26 hvcurveto
          -38 23 41 -19 56 hhcurveto
          102 hlineto
          53 34 22 26 24 hvcurveto
          -26 26 38 -14 47 hhcurveto
          35 hlineto
          45 35 15 29 16 hvcurveto
          4 -114 hlineto
          -11 5 -5 10 vhcurveto
          38 hlineto
          10 5 -84 callsubr
          endchar
        </CharString>
        <CharString name="dvB_JA">
          395 122 309 rmoveto
          16 2 14 5 12 vhcurveto
          211 -227 rlineto
          -129 hlineto
          -60 -29 33 58 hvcurveto
          -125 408 -95 callgsubr
          732 357 callsubr
          12 vhcurveto
          49 403 callgsubr
          -71 hlineto
          -243 263 rlineto
          9 14 18 4 22 hhcurveto
          55 hlineto
          11 4 5 9 hvcurveto
          34 541 callsubr
          -94 -55 -56 -93 -1 hvcurveto
          -102 vlineto
          227 callgsubr
          282 hlineto
          82 261 callgsubr
          4 144 268 callsubr
          -337 vlineto
          -11 5 -14 callsubr
          38 hlineto
          10 5 4 11 hvcurveto
          538 -98 callgsubr
          endchar
        </CharString>
        <CharString name="dvB_JHA">
          482 826 288 rmoveto
          -6 -3 -4 -8 vhcurveto
          -331 hlineto
          -46 -19 13 42 hvcurveto
          29 vlineto
          41 17 16 48 vhcurveto
          153 84 callsubr
          100 414 callsubr
          7 vhcurveto
          134 -101 callgsubr
          -614 -411 rmoveto
          -35 callsubr
          597 -101 callgsubr
          -63 183 callgsubr
          -114 hlineto
          -80 -48 -36 -77 hvcurveto
          -134 454 callsubr
          -1 -8 -17 callgsubr
          -94 -56 -56 -93 297 callgsubr
          -55 92 vhcurveto
          60 hlineto
          92 54 54 98 hvcurveto
          -11 22 28 -5 32 hhcurveto
          77 hlineto
          44 18 -18 -41 hvcurveto
          -69 vlineto
          -44 -20 -17 -48 vhcurveto
          -37 hlineto
          -47 -25 12 48 12 -6 4 -9 hvcurveto
          519 callsubr
          -11 hvcurveto
          -177 vlineto
          -11 6 -4 9 537 callgsubr
          87 4 vlineto
          -24 14 28 -7 35 hhcurveto
          36 hlineto
          80 46 41 76 hvcurveto
          81 vlineto
          21 -5 18 -13 11 vhcurveto
          133 221 callgsubr
          -192 vlineto
          -11 5 -14 callsubr
          38 hlineto
          10 5 4 11 hvcurveto
          538 -103 callsubr
          endchar
        </CharString>
        <CharString name="dvB_J_YA">
          747 1090 114 callsubr
          69 17 vlineto
          84 48 38 89 hvcurveto
          18 126 callsubr
          -968 -244 rmoveto
          16 2 14 5 12 vhcurveto
          211 -227 rlineto
          -129 hlineto
          -60 -29 33 58 hvcurveto
          -125 408 71 callsubr
          806 199 callsubr
          -14 hlineto
          28 -12 -24 15 -40 hhcurveto
          -291 hlineto
          -10 -5 93 callsubr
          -5 12 vhcurveto
          49 hlineto
          47 36 -21 -66 hvcurveto
          -76 vlineto
          -60 -25 -27 -58 vhcurveto
          -71 hlineto
          -243 263 rlineto
          9 14 18 4 22 hhcurveto
          55 hlineto
          11 4 5 9 hvcurveto
          34 541 callsubr
          -94 -55 -56 -93 -1 hvcurveto
          -102 vlineto
          227 callgsubr
          282 hlineto
          82 51 48 95 hvcurveto
          85 vlineto
          38 -12 28 548 callsubr
          114 vlineto
          29 4 -12 -27 hvcurveto
          -70 187 callgsubr
        </CharString>
        <CharString name="dvB_JxA">
          395 414 1 206 callgsubr
          -334 308 rmoveto
          16 2 14 5 12 vhcurveto
          211 -227 rlineto
          -129 hlineto
          -60 -29 33 58 hvcurveto
          -125 408 -95 callgsubr
          732 357 callsubr
          12 vhcurveto
          49 403 callgsubr
          -71 hlineto
          -243 263 rlineto
          9 14 18 4 22 hhcurveto
          55 hlineto
          11 4 5 9 hvcurveto
          34 541 callsubr
          -94 -55 -56 -93 -1 hvcurveto
          -102 vlineto
          227 callgsubr
          282 hlineto
          82 261 callgsubr
          4 144 268 callsubr
          -337 vlineto
          -11 5 -14 callsubr
          38 hlineto
          10 5 4 11 hvcurveto
          538 -98 callgsubr
          endchar
        </CharString>
        <CharString name="dvB_LA">
          461 212 142 rmoveto
          -35 callsubr
          798 -101 callgsubr
          -147 -4 vlineto
          367 callsubr
          -55 -36 520 callgsubr
          -4 hlineto
          45 -16 -39 19 -58 507 callsubr
          -60 454 callsubr
          -1 -8 -17 callgsubr
          -94 -56 -56 -93 297 callgsubr
          -56 589 callsubr
          44 35 14 26 24 hvcurveto
          -60 19 50 -28 70 hhcurveto
          -92 callsubr
          28 20 52 53 27 -21 -65 vhcurveto
          -278 vlineto
          -11 5 -14 callsubr
          38 hlineto
          10 5 4 11 hvcurveto
          538 -98 callgsubr
          endchar
        </CharString>
        <CharString name="dvB_L_YA">
          228 1164 268 rmoveto
          -69 -37 -44 -78 vhcurveto
          -63 hlineto
          -75 -38 37 69 hvcurveto
          47 22 callgsubr
          44 vlineto
          40 -13 27 -23 13 vhcurveto
          4 168 465 callsubr
          -952 -411 rmoveto
          -35 callsubr
          881 289 callsubr
          -87 -57 -49 -101 hvcurveto
          -81 454 callsubr
          -1 -8 -17 callgsubr
          -94 -56 -56 -93 297 callgsubr
          -56 589 callsubr
          46 37 15 30 25 hvcurveto
          -48 23 46 -24 65 hhcurveto
          44 534 callgsubr
          -36 hlineto
          -59 -31 25 172 callsubr
          21 52 58 23 539 callsubr
          113 vhcurveto
          68 -41 callsubr
          10 vhcurveto
          38 hlineto
          10 5 4 11 hvcurveto
          538 -103 callsubr
          endchar
        </CharString>
        <CharString name="dvB_NA">
          329 322 171 rmoveto
          -19 -13 -21 -10 -31 hhcurveto
          -45 hlineto
          -60 -30 211 callgsubr
          12 2 16 4 8 vhcurveto
          139 55 rmoveto
          -102 callsubr
          -60 hlineto
          -94 -56 -56 -93 297 callgsubr
          -56 92 vhcurveto
          56 hlineto
          67 42 27 53 24 hvcurveto
          -242 239 rlineto
          12 14 20 6 25 hhcurveto
          -216 204 -95 callgsubr
          666 hlineto
          534 callsubr
          -174 hlineto
          -66 134 callsubr
          -5 15 -4 346 callsubr
          -296 vlineto
          -11 6 -4 9 vhcurveto
          39 hlineto
          9 6 4 11 hvcurveto
          538 -103 callsubr
          endchar
        </CharString>
        <CharString name="dvB_R">
          -216 366 234 rmoveto
          -6 -9 -5 -8 -6 -7 -191 192 rcurveline
          251 callgsubr
          -94 -56 -56 -93 hvcurveto
          -98 vlineto
          -92 59 -52 81 vhcurveto
          37 -4 hlineto
          0 -30 214 callgsubr
          87 81 33 28 76 80 14 38 rlinecurve
          5 6 4 6 6 vvcurveto
          6 -3 4 -5 3 vhcurveto
          -14 10 -6 4 -3 2 -4 -1 rlinecurve
          -5 -2 -2 -5 -6 -7 rrcurveto
          -244 94 rmoveto
          15 2 14 5 11 vhcurveto
          196 -194 rlineto
          -20 -13 -23 -12 -32 hhcurveto
          -45 hlineto
          -60 -30 32 59 hvcurveto
          -125 390 rmoveto
          -81 callgsubr
          380 282 callgsubr
        </CharString>
        <CharString name="dvB_RA">
          6 233 84 rmoveto
          0 -29 214 callgsubr
          85 81 rlineto
          26 22 40 45 0 vvcurveto
          4 -107 hlineto
          -11 5 -5 9 vhcurveto
          39 hlineto
          10 5 5 11 hvcurveto
          537 -98 callgsubr
          -507 -86 callsubr
          342 -20 callsubr
          -320 vlineto
          -7 -1 -7 -1 -7 vhcurveto
          -190 190 rlineto
          251 callgsubr
          -94 -56 -56 -93 hvcurveto
          -98 vlineto
          -92 59 -52 81 vhcurveto
          36 hlineto
          -111 240 rmoveto
          471 callsubr
          -45 hlineto
          -60 -30 32 59 hvcurveto
          endchar
        </CharString>
        <CharString name="dvB_SA">
          408 752 339 315 callgsubr
          -203 4 hlineto
          147 callsubr
          162 -20 callsubr
          -540 -411 rmoveto
          -35 callsubr
          493 -65 callsubr
          -78 454 callsubr
          -1 -8 -17 callgsubr
          -94 -56 -56 -93 297 callgsubr
          -56 589 callsubr
          76 51 42 77 11 hvcurveto
          112 -190 -71 callgsubr
          -4 6 -1 3 hvcurveto
          -143 240 rlineto
          307 221 callgsubr
          -241 vlineto
          -11 5 -14 callsubr
          38 hlineto
          10 5 4 11 hvcurveto
          538 -103 callsubr
          endchar
        </CharString>
        <CharString name="dvB_SHA">
          434 307 608 rmoveto
          191 callgsubr
          -294 -86 callsubr
          294 0 callgsubr
          -95 -436 rmoveto
          -60 -30 211 callgsubr
          14 2 12 3 11 vhcurveto
          203 148 callgsubr
          115 300 389 callsubr
          -89 vlineto
          -63 -36 -22 -50 vhcurveto
          -129 -27 callgsubr
          -69 vlineto
          -9 -1 -9 -1 -8 vhcurveto
          -198 195 rlineto
          11 15 20 6 25 hhcurveto
          38 callgsubr
          -94 -56 -56 -93 297 callgsubr
          -56 92 vhcurveto
          53 hlineto
          76 51 42 78 12 hvcurveto
          130 -191 441 callgsubr
          -164 235 rlineto
          68 hlineto
          97 53 168 callsubr
          -50 42 -87 317 callgsubr
          428 131 rmoveto
          243 callsubr
          -578 58 callsubr
        </CharString>
        <CharString name="dvB_TA">
          299 212 142 rmoveto
          -35 callsubr
          636 hlineto
          7 2 286 callgsubr
          -89 -57 -47 -100 hvcurveto
          -41 454 callsubr
          -1 -8 -17 callgsubr
          -94 -56 -56 -93 297 callgsubr
          -56 589 callsubr
          39 32 11 21 24 hvcurveto
          -78 12 52 -36 77 hhcurveto
          471 callgsubr
          439 callsubr
          124 vlineto
          66 35 337 callgsubr
          7 3 -4 -7 hvcurveto
          -333 vlineto
          -11 5 -14 callsubr
          38 hlineto
          10 5 4 11 hvcurveto
          538 vlineto
          6 3 173 callsubr
          endchar
        </CharString>
        <CharString name="dvB_VA">
          294 212 142 rmoveto
          -35 callsubr
          630 -38 callsubr
          -315 vlineto
          64 callgsubr
          -93 -56 -56 -94 hvcurveto
          -91 454 callsubr
          -1 -8 -17 callgsubr
          -94 -56 -56 -93 297 callgsubr
          -56 589 callsubr
          55 41 22 41 23 hvcurveto
          -38 25 43 -21 56 hhcurveto
          35 369 callsubr
          15 hvcurveto
          4 -114 hlineto
          -11 6 -5 9 vhcurveto
          38 -13 callgsubr
          537 -98 callgsubr
          endchar
        </CharString>
        <CharString name="dvB_YA">
          367 710 -92 callgsubr
          -498 -411 rmoveto
          -35 callsubr
          427 159 callgsubr
          -7 vlineto
          -3 vlineto
          -22 454 callsubr
          -1 -8 -17 callgsubr
          -94 -56 -56 -93 hvcurveto
          556 callgsubr
          49 22 hvcurveto
          -38 29 47 -25 64 hhcurveto
          68 -41 callsubr
          9 vhcurveto
          39 hlineto
          10 5 4 11 hvcurveto
          538 -103 callsubr
          endchar
        </CharString>
        <CharString name="dvC">
          -158 448 563 rmoveto
          -102 callsubr
          -451 -86 callsubr
          323 -466 rmoveto
          73 43 43 33 24 hvcurveto
          2 3 3 5 5 vvcurveto
          6 -2 4 -6 5 vhcurveto
          -14 11 326 callsubr
          -7 -5 -5 -6 -6 hvcurveto
          -25 -23 -21 -23 -49 hhcurveto
          -58 100 callsubr
          -41 vvcurveto
          -38 560 callgsubr
          endchar
        </CharString>
        <CharString name="dvCA">
          77 146 374 551 callsubr
          93 vhcurveto
          66 hlineto
          51 188 callsubr
          76 hlineto
          11 -107 callsubr
          -11 vhcurveto
          -578 -86 callsubr
          413 -101 callgsubr
          -300 vlineto
          -60 -33 -34 -60 vhcurveto
          -66 37 callgsubr
          hlineto
          endchar
        </CharString>
        <CharString name="dvCH">
          79 -3 623 191 callsubr
          159 vlineto
          84 -42 42 -84 vhcurveto
          -40 hlineto
          -11 -5 -5 402 callsubr
          -23 -44 hvcurveto
          -151 -24 callsubr
          368 hlineto
          11 1 4 4 11 vvcurveto
          583 callgsubr
          endchar
        </CharString>
        <CharString name="dvCHA">
          79 342 426 rmoveto
          -11 -5 -5 -9 hvcurveto
          -31 vlineto
          -10 5 -5 11 vhcurveto
          36 hlineto
          44 20 -22 -44 hvcurveto
          -107 -24 callsubr
          199 394 callsubr
          -106 454 callsubr
          -3 -6 vhcurveto
          1 -10 -10 1 -12 hhcurveto
          -385 197 191 callsubr
          114 vlineto
          48 -14 35 -28 21 vhcurveto
          12 10 9 18 584 callsubr
          4 3 8 vhcurveto
          77 hlineto
          11 1 4 4 11 vvcurveto
          583 callgsubr
          endchar
        </CharString>
        <CharString name="dvCH_RA">
          79 342 426 rmoveto
          -11 -5 -5 -9 hvcurveto
          -31 vlineto
          -10 5 -5 11 vhcurveto
          36 hlineto
          44 20 -22 -44 hvcurveto
          -107 -24 callsubr
          199 394 callsubr
          -106 454 callsubr
          -3 -6 vhcurveto
          1 -10 -10 1 -12 hhcurveto
          -385 197 46 callsubr
          -89 53 -46 89 -1 vhcurveto
          -85 -113 25 callsubr
          -85 113 rlineto
          93 75 callsubr
        </CharString>
        <CharString name="dvCH_R_YA">
          574 917 244 rmoveto
          -63 -38 -52 -77 vhcurveto
          -40 hlineto
          -72 -35 29 73 hvcurveto
          16 hlineto
          78 59 31 92 78 -51 38 -86 hvcurveto
          -329 hlineto
          -11 -5 -5 402 callsubr
          -23 -44 hvcurveto
          -151 -24 callsubr
          699 -101 callgsubr
          -920 70 110 callsubr
          18 hlineto
          -93 -123 25 callsubr
          -93 123 rlineto
          91 2 47 63 79 vvcurveto
          159 vlineto
          27 -4 22 -9 18 vhcurveto
          178 hlineto
          47 22 -16 -42 -44 -21 -20 -48 hvcurveto
          -68 hlineto
          409 callgsubr
          -48 vlineto
          -95 52 -61 112 vhcurveto
          48 hlineto
          54 39 517 callgsubr
          -108 hlineto
          -11 6 -4 9 vhcurveto
          39 hlineto
          9 133 callsubr
        </CharString>
        <CharString name="dvCH_YA">
          572 915 359 callsubr
          15 hlineto
          78 59 31 92 78 -50 41 -86 hvcurveto
          -327 hlineto
          -11 -5 -6 -9 hvcurveto
          -32 474 callsubr
          -20 -45 hvcurveto
          -153 -24 callsubr
          697 -101 callgsubr
          -918 70 191 callsubr
          161 vlineto
          26 -4 22 -8 18 vhcurveto
          175 hlineto
          46 22 -16 -43 -44 -21 -20 -48 hvcurveto
          -67 hlineto
          -11 -5 -75 callsubr
          -48 vlineto
          -95 53 -61 112 vhcurveto
          47 hlineto
          54 40 517 callgsubr
          -108 hlineto
          -11 5 -14 callsubr
          38 hlineto
          10 5 4 11 hvcurveto
          538 414 callsubr
          8 146 callgsubr
        </CharString>
        <CharString name="dvC_CA">
          386 -86 callgsubr
          722 417 callsubr
          39 vlineto
          58 30 32 55 vhcurveto
          60 -7 callsubr
          -250 hlineto
          -11 -4 -6 -9 540 callsubr
          81 432 callsubr
          -41 vvcurveto
          -38 vlineto
          -12 1 -12 2 -11 vhcurveto
          -3 -3 rlineto
          -24 -23 -21 -24 -49 hhcurveto
          -58 hlineto
          -60 -30 31 59 hvcurveto
          39 vlineto
          58 29 32 55 vhcurveto
          20 -7 callsubr
          -237 99 callsubr
          -4 hlineto
          361 callsubr
          93 vhcurveto
          68 hlineto
          56 38 25 27 26 hvcurveto
          -34 25 42 -18 54 hhcurveto
          65 hlineto
          52 188 callsubr
          75 hlineto
          11 -97 callsubr
          -11 vhcurveto
          endchar
        </CharString>
</ttFont>
